<?xml version="1.0" standalone="no"?>
<!DOCTYPE svg PUBLIC "-//W3C//DTD SVG 20010904//EN"
 "http://www.w3.org/TR/2001/REC-SVG-20010904/DTD/svg10.dtd">
<svg version="1.0" xmlns="http://www.w3.org/2000/svg"
 width="235.000000pt" height="214.000000pt" viewBox="0 0 235.000000 214.000000"
 preserveAspectRatio="xMidYMid meet">

<g transform="translate(0.000000,214.000000) scale(0.100000,-0.100000)"
fill="#000000" stroke="none">
<path d="M0 2070 c0 -41 4 -70 10 -70 6 0 9 -23 8 -55 -2 -30 -6 -55 -10 -55
-5 0 -8 -56 -8 -125 l0 -126 28 16 c15 8 34 20 43 27 13 9 20 7 37 -8 49 -45
56 -50 50 -33 -5 14 -3 15 17 5 13 -6 19 -13 14 -17 -5 -3 6 -5 25 -5 19 1 32
4 29 9 -2 4 1 7 6 7 6 0 11 -6 11 -13 0 -7 28 -21 63 -31 100 -29 104 -29 68
-5 -18 12 -46 22 -62 22 -15 0 -26 4 -23 8 2 4 -5 6 -16 4 -13 -2 -20 1 -20
11 0 11 -8 13 -33 9 -24 -5 -39 -2 -50 10 -9 8 -19 16 -22 15 -23 -1 -27 2
-12 11 9 6 15 14 12 20 -4 5 -1 9 5 9 7 0 10 7 6 15 -9 23 14 18 40 -10 15
-16 21 -31 17 -43 -7 -16 -6 -16 11 1 9 9 28 17 42 17 15 0 24 6 24 16 0 8 5
12 10 9 6 -3 13 1 17 10 4 12 13 15 34 11 17 -3 29 -1 33 7 2 7 5 5 5 -4 1
-20 27 -32 53 -23 12 3 18 1 16 -7 -2 -7 12 -17 30 -22 26 -8 36 -7 48 5 14
14 13 15 -10 11 -15 -3 -26 -1 -26 6 0 6 -9 11 -20 11 -10 0 -24 9 -30 19 -12
24 -13 61 -1 61 5 0 16 3 24 6 11 4 16 -2 19 -18 2 -19 11 -24 43 -28 28 -4
39 -10 37 -20 -3 -11 1 -11 16 3 10 9 24 17 30 17 11 0 16 15 24 65 3 16 10
19 37 17 24 -3 31 0 26 9 -6 8 -4 10 4 4 7 -4 33 4 60 19 37 20 54 23 77 17
16 -5 28 -13 27 -19 -1 -6 12 -13 30 -17 17 -4 39 -8 48 -11 17 -5 44 -52 40
-71 -1 -7 3 -13 9 -13 6 0 8 5 5 10 -11 18 11 11 34 -11 28 -27 41 -16 15 12
l-19 22 32 -17 c38 -19 45 -12 45 50 0 33 4 47 16 51 10 4 20 11 23 16 12 18
37 -1 44 -32 7 -35 13 -38 29 -16 9 12 18 11 61 -8 28 -12 56 -27 63 -34 7 -7
25 -16 40 -20 15 -3 33 -13 41 -20 7 -8 26 -17 42 -20 16 -3 29 -9 29 -14 0
-5 20 -9 45 -9 29 0 47 -5 53 -16 6 -11 16 -13 35 -9 36 10 37 43 1 43 -14 0
-33 6 -41 15 -20 20 -9 67 17 74 27 7 25 39 -2 47 -13 3 -24 1 -26 -4 -6 -17
-47 -11 -105 14 -30 14 -59 22 -63 18 -5 -4 4 9 19 28 16 19 36 47 45 62 9 16
21 28 26 28 5 0 17 7 27 16 11 10 23 13 31 8 22 -14 40 -13 64 3 13 8 27 12
33 9 5 -4 16 7 24 24 14 28 14 30 -3 30 -10 0 -22 -4 -25 -10 -10 -17 -37 -11
-42 9 -3 11 -17 21 -35 25 -17 3 -369 6 -782 6 -572 0 -755 -3 -764 -12 -9 -9
-12 -9 -12 0 0 7 -9 12 -20 12 -18 0 -20 -7 -20 -70z m1605 20 c3 -5 1 -10 -4
-10 -6 0 -11 5 -11 10 0 6 2 10 4 10 3 0 8 -4 11 -10z m-1509 -34 c10 -8 15
-18 11 -23 -5 -4 -14 -1 -20 8 -7 9 -19 18 -27 22 -13 5 -13 6 1 6 8 1 24 -5
35 -13z m121 -26 c11 0 26 -7 33 -15 11 -13 9 -19 -8 -36 -30 -27 -28 -30 8
-13 16 9 41 14 55 12 24 -3 25 -5 12 -23 -12 -15 -18 -17 -29 -7 -26 21 -27 2
-1 -26 l25 -27 -31 -9 c-17 -5 -45 -22 -63 -37 -17 -16 -35 -29 -39 -29 -11 0
-39 48 -39 68 0 23 -45 66 -59 57 -15 -9 -14 38 1 53 7 7 20 12 30 12 10 0 18
5 18 11 0 6 7 8 16 5 8 -3 12 -2 9 4 -12 20 6 32 24 16 10 -9 27 -16 38 -16z
m33 -310 c0 -5 -4 -10 -9 -10 -6 0 -13 5 -16 10 -3 6 1 10 9 10 9 0 16 -4 16
-10z"/>
<path d="M85 1980 c-3 -5 3 -10 15 -10 12 0 18 5 15 10 -3 6 -10 10 -15 10 -5
0 -12 -4 -15 -10z"/>
<path d="M1962 2128 c-5 -7 -13 -28 -17 -46 -5 -26 -3 -36 15 -50 16 -13 24
-32 26 -64 3 -39 1 -46 -16 -51 -17 -4 -20 -2 -15 13 4 12 -1 19 -14 23 -25 6
-38 -3 -50 -36 l-11 -28 48 5 c26 2 39 2 29 -1 -10 -3 -16 -10 -14 -16 6 -18
60 -25 72 -10 6 8 45 15 104 18 71 3 97 8 103 20 5 8 15 15 23 15 7 0 34 9 59
20 l46 19 0 91 0 90 -189 0 c-139 0 -191 -3 -199 -12z m78 -141 c0 -19 -10
-27 -26 -20 -11 4 -12 9 -3 19 15 18 29 18 29 1z"/>
<path d="M1875 1840 c4 -6 11 -8 16 -5 14 9 11 15 -7 15 -8 0 -12 -5 -9 -10z"/>
<path d="M370 1700 c0 -6 9 -14 20 -17 11 -3 20 -10 20 -15 0 -5 6 -8 13 -5 6
2 23 0 37 -6 116 -45 240 -83 251 -76 11 6 11 9 -1 13 -45 16 -308 108 -322
113 -11 3 -18 0 -18 -7z"/>
<path d="M1578 1693 c7 -3 16 -2 19 1 4 3 -2 6 -13 5 -11 0 -14 -3 -6 -6z"/>
<path d="M1670 1652 c0 -15 18 -34 29 -31 7 3 3 11 -9 21 -11 10 -20 14 -20
10z"/>
<path d="M2320 1629 c0 -12 -4 -17 -11 -14 -6 4 -13 -2 -16 -14 -3 -14 -13
-21 -29 -21 -33 0 -30 -26 5 -38 52 -18 42 -72 -13 -72 -19 0 -22 -60 -4 -78
9 -9 9 -12 0 -12 -7 0 -12 -4 -12 -10 0 -14 20 -12 53 4 15 8 27 11 27 6 0 -4
-5 -10 -12 -12 -17 -6 0 -28 23 -28 18 0 19 8 19 155 0 131 -2 155 -15 155 -8
0 -15 -9 -15 -21z m-23 -215 c-3 -3 -12 -4 -19 -1 -8 3 -5 6 6 6 11 1 17 -2
13 -5z"/>
<path d="M1056 1584 c-104 -51 -105 -52 -73 -50 14 0 23 5 20 9 -3 5 1 7 8 6
24 -3 79 22 72 34 -4 7 0 8 11 4 9 -4 15 -3 12 2 -3 5 1 12 9 15 19 7 22 -1
29 -86 6 -63 5 -67 -16 -73 -13 -4 -58 -22 -101 -41 -43 -19 -80 -34 -82 -34
-3 0 -5 25 -5 55 0 48 -3 55 -19 55 -33 0 -33 17 1 29 17 6 29 14 26 17 -4 3
-23 -3 -45 -14 -21 -11 -45 -17 -53 -14 -8 2 -12 1 -8 -2 9 -11 -24 -43 -39
-38 -6 2 -9 11 -6 20 5 14 3 15 -8 5 -16 -15 -33 -17 -24 -3 3 6 1 10 -4 10
-6 0 -11 -6 -11 -12 0 -7 -5 -5 -11 5 -7 12 -17 16 -30 12 -10 -4 -19 -3 -19
2 0 4 -17 9 -38 9 -32 2 -28 -1 32 -22 39 -13 73 -29 77 -35 5 -8 8 -8 10 0 3
7 12 9 22 6 9 -4 14 -12 10 -18 -3 -6 -1 -7 6 -3 6 4 19 2 28 -6 9 -7 14 -8
11 -3 -3 6 5 11 19 12 17 1 21 -2 13 -7 -9 -6 -7 -10 8 -14 36 -12 41 -66 6
-66 -9 0 -12 5 -8 11 4 8 -1 9 -16 4 -16 -5 -20 -4 -15 4 5 8 -2 10 -22 6 -22
-5 -25 -4 -13 5 12 9 10 10 -9 5 -17 -5 -21 -4 -16 5 5 9 1 10 -15 5 -15 -5
-20 -4 -16 4 4 6 15 11 24 12 11 0 12 2 4 6 -6 2 -10 9 -7 14 4 5 -1 6 -9 3
-9 -3 -14 -10 -11 -14 5 -8 -18 -20 -38 -20 -9 0 -9 2 0 8 6 4 -6 7 -28 7 -29
0 -44 6 -51 18 -7 14 -17 17 -41 12 -25 -5 -29 -4 -17 5 12 9 11 10 -6 5 -12
-3 -32 -1 -45 5 -23 10 -23 10 -1 6 13 -2 20 0 16 6 -3 5 -17 7 -30 4 -33 -9
-81 4 -62 16 8 5 2 6 -17 2 -24 -4 -27 -3 -15 6 13 10 12 11 -3 6 -26 -8 -82
5 -65 15 8 6 -1 7 -22 3 -28 -4 -32 -3 -20 6 13 9 12 10 -5 6 -11 -3 -33 -2
-50 3 -22 7 -25 10 -10 11 41 3 -61 31 -131 36 -65 5 -74 3 -100 -19 -24 -21
-26 -27 -16 -40 9 -10 10 -17 2 -22 -5 -3 -10 -13 -10 -22 0 -11 6 -8 21 11
11 14 24 24 29 21 5 -3 11 -1 14 3 3 5 -6 9 -21 8 -35 -1 -38 15 -6 38 23 17
31 18 72 7 25 -7 53 -14 61 -16 8 -2 44 -13 80 -25 36 -11 90 -27 121 -35 31
-8 69 -22 85 -30 16 -8 38 -15 50 -15 11 0 29 -7 40 -16 12 -10 14 -14 4 -11
-26 7 -191 54 -290 82 -52 15 -103 30 -113 32 -11 4 -17 0 -17 -11 0 -9 8 -16
17 -16 19 0 44 -7 173 -50 52 -18 112 -34 134 -36 21 -2 44 -8 50 -13 6 -5 39
-15 74 -22 34 -7 62 -17 62 -21 0 -4 9 -8 20 -8 11 0 19 -3 19 -7 -3 -19 2
-25 14 -15 16 14 191 -37 193 -55 2 -29 5 -34 17 -32 31 4 37 -1 31 -26 -5
-22 -2 -25 41 -36 l47 -12 -6 -45 c-3 -25 -14 -54 -24 -65 -17 -19 -17 -19
-24 9 -4 16 -5 -8 -3 -53 2 -45 0 -83 -4 -85 -4 -2 -2 -16 5 -33 l13 -30 1 33
c0 22 5 32 15 32 8 0 15 -4 15 -10 0 -5 -5 -10 -11 -10 -7 0 -10 -14 -7 -35
l4 -36 -45 6 c-142 19 -226 37 -234 50 -13 23 -73 34 -162 28 -47 -2 -85 -1
-85 4 0 8 -35 9 -100 3 -24 -2 -24 -3 4 -9 17 -3 29 -10 27 -15 -1 -5 3 -13
11 -17 11 -7 10 -11 -2 -19 -13 -8 -12 -10 2 -10 10 0 18 -3 17 -7 -5 -38 35
-70 47 -38 4 9 15 12 32 9 15 -3 39 -6 54 -7 40 -3 105 -67 67 -67 -5 0 -7 5
-4 10 3 6 1 10 -4 10 -14 0 -14 -27 -1 -35 37 -23 66 -5 38 23 -9 9 -9 12 -1
12 7 0 13 15 15 33 l4 32 11 -25 c11 -24 12 -24 12 -3 1 13 12 27 30 36 25 12
41 13 111 1 45 -7 88 -10 96 -7 11 4 14 -9 15 -68 0 -41 1 -93 2 -117 2 -39 0
-42 -25 -42 -14 0 -35 -3 -45 -6 -17 -5 -17 -4 1 10 20 16 27 58 14 79 -5 7
-8 3 -8 -13 0 -30 -20 -66 -20 -38 0 9 -7 21 -16 26 -23 13 -28 66 -9 82 14
12 18 11 25 -1 7 -10 9 -8 7 8 -1 19 -9 23 -67 29 -36 4 -68 12 -72 18 -5 7
-8 4 -8 -8 0 -10 11 -29 25 -42 14 -13 25 -27 25 -31 0 -5 10 -13 22 -18 12
-6 23 -16 26 -22 5 -18 -53 -17 -71 2 -13 13 -16 13 -21 0 -3 -8 -3 -22 1 -31
5 -13 7 -13 14 -2 9 13 11 3 11 -62 0 -76 -2 -90 -14 -87 -7 1 -12 -5 -10 -14
1 -9 -5 -16 -13 -16 -8 0 -15 4 -15 9 0 4 -6 7 -12 5 -9 -1 -14 22 -18 81 -3
45 -1 82 3 82 5 0 5 5 1 12 -5 8 -2 9 10 5 11 -5 16 -3 14 4 -2 7 -19 13 -38
14 -19 2 -79 6 -132 10 l-98 7 0 -106 0 -106 -60 3 c-33 2 -62 6 -66 9 -9 10
6 29 17 23 5 -4 9 12 9 35 0 25 -4 39 -10 35 -5 -3 -10 -1 -10 4 0 6 5 11 11
11 6 0 9 21 7 53 -3 52 -3 52 -35 49 -17 -2 -41 2 -52 8 -21 10 -21 9 -21 -90
0 -93 1 -100 20 -100 17 0 20 6 17 39 -2 21 0 47 4 57 5 12 8 -6 8 -44 1 -39
5 -61 11 -57 5 3 10 -1 10 -10 0 -13 -11 -15 -60 -12 -33 2 -62 6 -66 9 -3 4
-12 4 -20 1 -8 -3 -14 0 -14 6 0 8 -4 8 -13 -1 -17 -15 -10 -53 7 -39 6 5 37
5 75 0 49 -7 67 -6 73 3 5 9 8 5 8 -11 0 -16 -4 -22 -15 -17 -8 3 -15 0 -15
-7 0 -7 -7 -3 -15 7 -8 11 -15 14 -15 8 0 -7 -7 -12 -15 -12 -8 0 -15 -7 -15
-15 0 -11 -12 -15 -44 -15 -37 0 -44 -3 -41 -18 2 -9 4 -26 4 -37 1 -17 3 -17
11 -5 8 12 10 12 11 -5 1 -17 2 -16 9 5 5 17 8 19 9 8 1 -10 6 -18 12 -18 5 0
8 4 5 8 -3 5 1 9 9 9 7 0 16 -13 19 -29 3 -18 12 -28 23 -28 15 0 15 1 -2 14
-16 12 -17 16 -6 30 13 15 15 15 27 -1 13 -17 13 -17 14 0 0 9 5 17 10 17 6 0
10 8 10 18 0 9 9 23 20 30 12 7 20 8 20 2 0 -14 27 -12 33 3 4 9 6 9 6 0 1
-17 28 -17 34 0 4 9 8 9 15 -2 8 -11 10 -11 15 0 4 9 6 7 7 -6 l1 -20 9 20 c7
16 9 17 9 3 1 -9 9 -19 19 -21 9 -3 -27 -4 -81 -3 -96 3 -97 3 -97 -21 0 -12
-4 -23 -10 -23 -5 0 -10 -7 -10 -15 0 -8 -4 -15 -10 -15 -5 0 -10 -5 -10 -11
0 -5 5 -7 10 -4 6 3 10 1 10 -4 0 -7 26 -11 65 -11 37 0 65 -4 65 -10 0 -5 12
-10 28 -10 15 0 33 -4 41 -9 20 -13 -15 -22 -101 -25 -43 -2 -74 -8 -76 -15
-2 -6 -8 -11 -14 -11 -21 0 -38 -31 -40 -75 -2 -45 -3 -46 -33 -43 -22 2 -29
8 -27 21 2 9 -2 17 -8 17 -5 0 -10 -9 -10 -20 0 -11 -5 -18 -13 -16 -51 16
-67 16 -68 -1 0 -16 -2 -15 -9 2 -7 17 -9 15 -9 -12 -1 -30 -4 -33 -31 -33
-27 0 -30 -3 -30 -30 l0 -30 133 1 c72 1 122 4 110 6 -13 2 -23 8 -23 13 0 11
160 23 222 15 29 -4 82 -2 117 4 60 10 82 8 70 -4 -3 -2 -52 -11 -110 -19
l-104 -15 110 4 c271 11 456 25 535 39 47 9 148 21 225 26 77 6 181 15 231 21
67 8 97 8 112 0 25 -14 35 -14 27 -1 -4 6 46 9 134 7 76 -1 137 -5 134 -9 -2
-5 -23 -8 -46 -9 l-42 -1 37 -10 c29 -8 44 -6 69 6 33 17 94 21 148 10 51 -11
25 -22 -42 -19 -46 3 -53 2 -27 -4 34 -7 33 -8 -25 -15 -63 -8 -112 -23 -121
-37 -3 -5 102 -9 235 -9 l241 0 0 69 0 69 -132 -4 c-73 -2 -134 -8 -137 -12
-4 -5 -100 -8 -216 -9 -119 0 -188 3 -160 7 28 4 53 6 57 3 3 -2 33 4 65 12
32 8 83 18 113 21 61 7 69 9 43 16 -10 3 -45 -1 -78 -8 -33 -7 -76 -13 -95
-13 -42 1 -32 5 35 15 46 7 48 8 20 14 -16 3 44 7 135 7 91 0 207 4 258 8 l92
7 0 269 0 269 -49 0 c-27 0 -51 5 -53 11 -2 6 -22 17 -43 25 -57 21 -58 21
-63 2 -2 -12 7 -20 37 -28 22 -6 43 -15 46 -20 8 -13 4 -13 -40 6 -20 8 -39
14 -41 12 -2 -2 0 -49 5 -104 5 -54 7 -103 4 -107 -3 -4 -13 -5 -22 -2 -10 3
-24 -1 -31 -10 -10 -13 -9 -15 9 -15 11 0 21 -4 21 -10 0 -5 -20 -10 -45 -10
-49 0 -51 4 -57 80 -2 19 -9 36 -15 36 -7 1 -26 2 -43 3 -28 1 -30 4 -30 40 0
22 -4 43 -10 46 -9 6 -14 -8 -11 -28 1 -4 -8 -3 -18 3 -14 7 -22 7 -26 0 -5
-8 -11 -8 -20 0 -7 6 -19 9 -26 8 -12 -3 -15 2 -18 37 0 8 -6 15 -12 15 -5 0
-9 -8 -8 -17 3 -34 -2 -38 -17 -13 -15 24 -15 24 -10 2 4 -20 1 -22 -17 -16
-12 3 -23 7 -23 8 -1 0 -5 46 -9 101 -3 55 -8 111 -11 125 -4 22 -3 23 5 5 9
-19 10 -18 11 5 1 15 4 19 7 10 2 -8 7 -22 9 -30 5 -13 6 -13 15 0 8 12 9 11
5 -5 -3 -11 -8 -33 -11 -50 -4 -25 -4 -27 5 -10 7 15 8 6 4 -35 -4 -40 -2 -51
5 -40 6 8 11 40 12 70 l1 55 14 -40 14 -40 -5 40 c-3 22 -7 63 -9 90 -16 190
-29 308 -42 357 -8 32 -12 69 -10 83 3 13 1 27 -3 29 -7 5 -31 -79 -31 -110 0
-25 19 -15 24 14 6 33 -2 -160 -10 -245 -4 -35 -11 -63 -16 -63 -6 0 -7 16 -3
41 5 27 3 44 -4 48 -7 5 -12 45 -14 99 -1 51 -5 92 -10 92 -4 0 -6 3 -6 8 1 4
1 30 0 58 -1 50 -3 53 -51 90 -36 27 -46 40 -37 47 8 6 5 7 -10 4 -16 -4 -23
1 -27 19 -5 18 -13 24 -32 24 -18 0 -28 7 -31 21 -4 14 -12 19 -24 16 -11 -3
-19 -1 -19 3 0 5 8 11 18 13 11 3 7 5 -10 6 -14 0 -29 7 -31 14 -4 9 -8 8 -16
-3 -13 -18 -14 -33 -2 -26 5 3 14 -1 20 -8 9 -11 9 -15 -1 -19 -7 -2 0 -3 15
-1 18 2 26 0 21 -7 -4 -6 0 -15 7 -20 29 -18 -12 -8 -102 27 -136 52 -131 51
-125 23 3 -13 7 -53 8 -88 l3 -65 -33 -9 c-18 -6 -34 -8 -36 -6 -2 2 -6 51 -9
107 -3 57 -7 105 -9 107 -2 1 -43 -17 -92 -41z m-831 -24 c13 -6 15 -9 5 -9
-8 0 -22 4 -30 9 -18 12 -2 12 25 0z m1272 -56 c-3 -3 -12 -4 -19 -1 -8 3 -5
6 6 6 11 1 17 -2 13 -5z m-860 -70 c-3 -3 -12 -4 -19 -1 -8 3 -5 6 6 6 11 1
17 -2 13 -5z m519 -31 c-1 -1 -17 -5 -35 -8 -18 -3 -49 -12 -68 -20 -20 -8
-44 -15 -54 -15 -11 0 -19 -4 -19 -10 0 -13 26 -13 51 0 12 7 19 7 19 1 0 -6
-17 -18 -37 -27 -21 -10 -42 -20 -48 -23 -5 -2 -4 3 4 12 12 15 11 17 -3 17
-9 0 -16 6 -16 14 0 7 42 30 98 54 85 35 98 38 103 23 4 -9 6 -17 5 -18z
m-521 7 c28 -10 46 -19 41 -20 -15 0 -91 23 -100 32 -16 13 5 9 59 -12z m608
-84 c-4 -47 -2 -76 5 -80 14 -8 5 -36 -17 -55 -14 -12 -14 -13 3 -7 14 5 17 2
12 -10 -3 -8 -6 -30 -7 -47 -1 -31 -1 -31 -10 -7 -8 24 -9 24 -5 -3 2 -18 -2
-31 -11 -34 -12 -5 -12 -7 -1 -14 7 -5 18 -9 23 -9 6 0 4 4 -3 9 -11 7 -11 9
2 14 9 4 16 17 16 31 0 47 7 54 45 42 26 -8 35 -17 35 -32 0 -15 8 -24 25 -28
14 -4 25 -14 25 -22 0 -13 -7 -15 -32 -11 -108 19 -112 18 -50 -4 19 -7 21
-12 13 -28 -8 -14 -7 -27 4 -48 19 -36 19 -59 -1 -67 -24 -9 -34 -7 -29 7 5
12 -11 45 -18 37 -2 -3 0 -61 5 -130 6 -83 5 -126 -2 -128 -5 -2 -11 -22 -11
-45 l-1 -42 -8 35 c-4 19 -16 51 -27 70 -17 29 -22 60 -27 178 -5 114 -4 142
6 136 10 -6 11 -4 1 7 -7 7 -13 24 -13 37 0 15 4 21 13 17 6 -4 5 0 -5 7 -13
11 -18 41 -23 150 -8 149 -10 144 52 147 20 1 21 -2 16 -73z m-461 40 c10 -1
21 -5 24 -9 13 -13 -23 -7 -57 9 -22 10 -25 13 -9 9 14 -4 33 -8 42 -9z m375
8 c-3 -3 -12 -4 -19 -1 -8 3 -5 6 6 6 11 1 17 -2 13 -5z m-258 -50 c14 -12
-19 -1 -35 12 -18 14 -18 14 6 3 14 -6 27 -13 29 -15z m721 -5 c0 -10 -4 -19
-8 -19 -4 0 -8 11 -8 24 0 14 4 22 8 20 4 -3 8 -14 8 -25z m-40 1 c8 -5 11
-10 5 -10 -5 0 -17 5 -25 10 -8 5 -10 10 -5 10 6 0 17 -5 25 -10z m-70 -20
c-13 -8 -12 -10 3 -10 15 0 16 -2 5 -14 -20 -22 -30 -6 -19 32 1 1 7 2 14 2 8
0 7 -4 -3 -10z m92 -24 c5 -7 8 -7 8 -1 0 6 5 3 10 -5 5 -8 9 -33 9 -55 0 -31
-2 -36 -9 -20 l-9 20 -2 -20 c-1 -11 -5 2 -8 29 -7 60 -26 70 -37 21 l-9 -37
-12 32 c-11 28 -10 32 10 40 16 6 18 9 5 9 -9 1 -19 5 -23 11 -8 13 58 -11 67
-24z m-519 -78 c2 -38 1 -65 -4 -62 -5 3 -9 -3 -9 -12 0 -10 -3 -15 -6 -11 -4
3 -3 14 1 24 8 20 7 96 -2 128 -3 13 -2 17 5 10 5 -5 12 -40 15 -77z m430 45
c-7 -2 -19 -2 -25 0 -7 3 -2 5 12 5 14 0 19 -2 13 -5z m117 -83 c0 -5 -4 -10
-10 -10 -5 0 -10 5 -10 10 0 6 5 10 10 10 6 0 10 -4 10 -10z m-185 -70 c-3 -5
-12 -10 -18 -10 -7 0 -6 4 3 10 19 12 23 12 15 0z m65 -2 c0 -4 -4 -8 -9 -8
-6 0 -12 4 -15 8 -3 5 1 9 9 9 8 0 15 -4 15 -9z m70 0 c0 -9 4 -8 10 2 7 11
10 11 10 2 0 -10 5 -10 20 -2 21 11 25 4 34 -73 3 -31 1 -37 -13 -33 -9 3 -37
10 -63 17 -27 6 -48 15 -48 20 0 5 5 9 10 9 6 0 10 13 10 28 0 16 3 32 7 35
10 11 23 8 23 -5z m-197 -73 c-3 -9 -8 -14 -10 -11 -3 3 -2 9 2 15 9 16 15 13
8 -4z m-383 -10 c0 -8 -4 -15 -10 -15 -5 0 -10 7 -10 15 0 8 5 15 10 15 6 0
10 -7 10 -15z m740 -6 c0 -11 -4 -18 -10 -14 -5 3 -7 12 -3 20 7 21 13 19 13
-6z m-200 -20 c0 -5 -5 -9 -11 -9 -5 0 -7 5 -4 10 3 6 1 10 -4 10 -6 0 -11 5
-11 11 0 8 5 8 15 -1 8 -7 15 -16 15 -21z m-160 1 c0 -5 8 -10 18 -10 14 0 14
-2 3 -9 -8 -5 -21 -7 -30 -4 -13 4 -13 3 -2 -5 14 -10 28 -140 27 -247 -1 -37
4 -64 12 -70 9 -7 6 -10 -13 -10 -15 0 -25 6 -25 15 -1 8 -3 54 -6 103 -5 63
-3 92 7 103 10 12 10 15 -2 12 -11 -2 -14 12 -16 65 -2 53 1 67 12 67 8 0 15
-4 15 -10z m240 -18 c0 -7 -4 -10 -10 -7 -5 3 -10 1 -10 -4 0 -6 -10 -11 -22
-10 -22 0 -22 1 -3 9 11 5 14 9 8 9 -24 2 -13 16 12 16 14 0 25 -6 25 -13z
m87 -4 c-3 -8 -6 -5 -6 6 -1 11 2 17 5 13 3 -3 4 -12 1 -19z m-70 -161 c4 -62
6 -129 5 -149 -1 -33 2 -37 26 -41 26 -4 26 -4 -4 -6 -20 0 -31 -6 -31 -16 0
-9 6 -14 14 -10 7 3 19 8 27 11 8 3 16 -4 20 -18 5 -19 8 -20 16 -8 6 9 10 10
10 3 0 -6 8 -14 18 -17 9 -3 -8 -3 -38 -1 -30 3 -84 6 -120 6 -36 1 -53 4 -37
6 15 2 27 9 27 14 0 5 8 9 17 9 15 0 14 2 -3 15 -10 8 -14 15 -9 15 6 0 3 5
-5 10 -13 9 -13 10 0 10 13 0 13 1 0 10 -12 8 -9 10 14 10 23 0 27 -3 21 -17
-4 -12 -3 -15 4 -8 13 14 15 41 8 115 -14 137 -16 183 -10 192 13 23 25 -29
30 -135z m563 -97 c16 -11 15 -11 -17 -15 -14 -1 -20 2 -16 11 6 16 13 17 33
4z m-1920 -20 c0 -11 -4 -20 -9 -20 -5 0 -7 9 -4 20 3 11 7 20 9 20 2 0 4 -9
4 -20z m937 -17 c-3 -10 -5 -4 -5 12 0 17 2 24 5 18 2 -7 2 -21 0 -30z m1039
-18 c-3 -8 -1 -17 4 -20 5 -3 9 -29 8 -58 -1 -29 2 -63 7 -77 6 -21 5 -23 -6
-12 -8 8 -15 40 -16 80 -2 37 -3 75 -4 85 0 9 -4 17 -8 17 -5 0 -11 10 -14 21
l-6 21 20 -21 c12 -12 18 -28 15 -36z m-1769 30 c0 -8 -4 -12 -9 -9 -5 3 -6
10 -3 15 9 13 12 11 12 -6z m88 5 c8 -13 -5 -13 -25 0 -13 8 -13 10 2 10 9 0
20 -4 23 -10z m1637 -22 c-7 -7 -12 -8 -12 -2 0 14 12 26 19 19 2 -3 -1 -11
-7 -17z m-1652 -3 c0 -8 -4 -15 -10 -15 -5 0 -10 7 -10 15 0 8 5 15 10 15 6 0
10 -7 10 -15z m1290 -15 c0 -11 -4 -20 -9 -20 -11 0 -22 26 -14 34 12 12 23 5
23 -14z m55 10 c3 -5 1 -10 -4 -10 -6 0 -11 5 -11 10 0 6 2 10 4 10 3 0 8 -4
11 -10z m-1045 -10 c0 -5 -2 -10 -4 -10 -3 0 -8 5 -11 10 -3 6 -1 10 4 10 6 0
11 -4 11 -10z m329 -20 c9 -26 8 -30 -9 -30 -12 0 -17 6 -15 18 2 9 4 23 4 30
1 20 8 14 20 -18z m-702 -25 c1 -19 -2 -35 -7 -35 -6 0 -10 19 -10 42 0 49 12
43 17 -7z m1233 0 c0 -5 -5 -3 -10 5 -5 8 -10 20 -10 25 0 6 5 3 10 -5 5 -8
10 -19 10 -25z m203 28 c-7 -2 -19 -2 -25 0 -7 3 -2 5 12 5 14 0 19 -2 13 -5z
m397 -15 c0 -19 -2 -20 -10 -8 -13 19 -13 30 0 30 6 0 10 -10 10 -22z m-1438
-12 c14 4 18 2 14 -5 -4 -6 -14 -11 -22 -11 -8 0 -14 -4 -14 -9 0 -11 52 -4
60 8 3 4 13 11 24 14 14 5 17 3 13 -8 -4 -8 3 -21 16 -30 21 -14 20 -15 -20
-15 -22 0 -55 -3 -72 -6 l-31 -6 1 48 c1 27 3 41 6 31 3 -13 10 -16 25 -11z
m398 4 c0 -5 -2 -10 -4 -10 -3 0 -8 5 -11 10 -3 6 -1 10 4 10 6 0 11 -4 11
-10z m-770 -57 c0 -16 -4 -23 -8 -17 -4 6 -14 14 -22 17 -12 4 -11 6 3 6 9 1
17 6 17 11 0 6 2 10 5 10 3 0 5 -12 5 -27z m680 8 c0 -5 9 -11 20 -14 35 -9
21 -22 -24 -22 -28 0 -42 3 -38 10 19 30 42 45 42 26z m820 -15 c0 -11 -19
-15 -25 -6 -3 5 1 10 9 10 9 0 16 -2 16 -4z m219 -38 l-2 -43 -6 35 c-7 33 -5
50 5 50 2 0 3 -19 3 -42z m-1739 11 c0 -6 -4 -7 -10 -4 -5 3 -10 11 -10 16 0
6 5 7 10 4 6 -3 10 -11 10 -16z m384 -10 c-8 -13 -21 -11 -27 5 -4 10 0 12 14
9 10 -3 16 -9 13 -14z m1316 11 c0 -5 -2 -10 -4 -10 -3 0 -8 5 -11 10 -3 6 -1
10 4 10 6 0 11 -4 11 -10z m-1390 -20 c-14 -4 -29 -5 -34 -2 -14 8 27 20 44
14 11 -4 8 -8 -10 -12z m1118 4 c-13 -13 -25 -15 -55 -9 -36 7 -36 8 -13 15
14 5 38 8 55 9 27 1 28 0 13 -15z m-848 -4 c0 -5 -21 -10 -47 -10 -35 0 -44 3
-33 10 20 13 80 13 80 0z m365 0 c4 -6 -10 -10 -35 -10 -25 0 -39 4 -35 10 3
6 19 10 35 10 16 0 32 -4 35 -10z m-1028 -27 c0 -16 -3 -16 -28 -3 -12 7 -19
7 -19 1 0 -11 -39 -6 -49 5 -3 4 2 4 11 1 10 -3 20 -2 22 2 8 13 63 7 63 -6z
m27 2 c3 -8 1 -15 -4 -15 -6 0 -10 7 -10 15 0 8 2 15 4 15 2 0 6 -7 10 -15z
m46 -10 c-12 -15 -30 -12 -30 6 0 5 10 9 21 9 18 0 19 -2 9 -15z m80 -80 c0
-61 -4 -95 -11 -95 -6 0 -8 8 -4 19 3 10 1 29 -4 42 -5 13 -10 18 -10 12 -2
-30 -21 -10 -21 22 0 19 -4 35 -10 35 -5 0 -10 10 -10 23 0 18 2 19 10 7 8
-12 10 -11 10 8 0 17 6 22 25 22 25 0 25 0 25 -95z m50 73 c0 -12 6 -29 14
-37 18 -21 33 -86 17 -77 -6 4 -11 14 -11 22 0 8 -4 14 -10 14 -5 0 -10 -9
-10 -19 0 -11 -6 -22 -12 -24 -10 -4 -9 -8 2 -16 9 -7 10 -11 3 -11 -7 0 -14
-19 -16 -42 -2 -24 -4 14 -5 85 -2 107 0 127 13 127 9 0 15 -9 15 -22z m144
13 c33 -1 28 -13 -6 -15 -13 -1 -22 -7 -20 -15 1 -7 -2 -10 -8 -6 -6 3 -8 11
-5 16 4 5 -1 9 -9 9 -8 0 -17 4 -20 8 -3 5 5 7 17 6 12 -1 35 -3 51 -3z m474
-49 c2 -29 -1 -52 -6 -52 -14 0 -22 26 -22 72 0 60 24 43 28 -20z m82 48 c0
-5 -4 -10 -10 -10 -5 0 -10 5 -10 10 0 6 5 10 10 10 6 0 10 -4 10 -10z m133
-41 c4 -24 6 -82 5 -129 l-3 -85 -60 -1 -60 -1 58 6 58 6 -33 31 c-18 17 -42
35 -53 40 -16 7 -10 9 27 12 l48 3 -5 52 c-3 29 -8 67 -11 86 -8 52 19 34 29
-20z m674 45 c-3 -3 -12 -4 -19 -1 -8 3 -5 6 6 6 11 1 17 -2 13 -5z m80 -74
c-3 -53 0 -73 10 -82 11 -9 17 -9 24 3 7 11 9 11 9 -3 0 -14 -8 -18 -32 -18
-18 0 -44 -3 -58 -6 -20 -5 -22 -4 -10 6 13 10 12 11 -5 7 -15 -3 -21 1 -22
15 -1 10 2 16 8 13 5 -4 9 -1 9 4 0 6 -4 11 -9 11 -5 0 -11 6 -14 14 -5 11 3
14 31 13 l37 -2 3 48 c2 26 8 47 13 47 7 0 9 -26 6 -70z m57 55 c-4 -8 -2 -15
4 -15 6 0 12 6 15 13 2 6 8 -5 12 -25 4 -23 11 -35 18 -31 6 3 7 1 3 -5 -11
-18 -26 -14 -26 7 0 11 -5 23 -12 27 -7 4 -8 3 -4 -4 4 -7 3 -12 -2 -12 -11 0
-23 40 -16 52 9 14 14 9 8 -7z m-277 -42 c-3 -10 -5 -2 -5 17 0 19 2 27 5 18
2 -10 2 -26 0 -35z m-1711 16 c0 -19 -1 -19 -13 -3 -12 17 -13 17 -14 -2 0
-14 -2 -15 -6 -4 -3 8 -11 18 -17 22 -6 4 3 8 19 8 24 0 31 -4 31 -21z m714
-5 c0 -31 -23 -28 -28 4 -2 15 2 22 12 22 11 0 16 -9 16 -26z m1135 -14 c3 -5
1 -10 -4 -10 -6 0 -11 5 -11 10 0 6 2 10 4 10 3 0 8 -4 11 -10z m45 -4 c0 -2
-7 -6 -15 -10 -8 -3 -15 -1 -15 4 0 6 7 10 15 10 8 0 15 -2 15 -4z m-600 -14
c0 -4 -12 -8 -27 -9 -24 -1 -25 -1 -8 7 26 11 35 12 35 2z m-333 -47 c0 -8 -4
-15 -8 -15 -4 0 -9 7 -13 15 -3 9 0 15 8 15 7 0 13 -7 13 -15z m-590 -57 c-3
-8 -6 -5 -6 6 -1 11 2 17 5 13 3 -3 4 -12 1 -19z m614 -101 c-4 -4 -16 -1 -25
8 -18 18 -21 35 -6 35 6 0 10 -4 10 -10 0 -5 3 -10 8 -10 4 0 6 24 5 52 l-2
53 10 -60 c5 -33 5 -63 0 -68z m1069 97 c0 -2 -7 -4 -15 -4 -8 0 -15 4 -15 10
0 5 7 7 15 4 8 -4 15 -8 15 -10z m-67 -1 c-7 -2 -21 -2 -30 0 -10 3 -4 5 12 5
17 0 24 -2 18 -5z m-1266 -78 c-1 -13 -6 -27 -10 -30 -4 -3 -5 -2 -2 2 3 3 0
12 -6 20 -9 10 -8 13 1 13 7 0 10 7 6 16 -3 9 -2 12 4 9 6 -4 9 -17 7 -30z
m-727 -59 c0 -3 -4 -8 -10 -11 -5 -3 -10 -1 -10 4 0 6 5 11 10 11 6 0 10 -2
10 -4z m1915 -16 c-11 -5 -29 -8 -40 -8 -16 0 -15 2 5 8 34 11 60 11 35 0z
m118 -7 c-7 -2 -19 -2 -25 0 -7 3 -2 5 12 5 14 0 19 -2 13 -5z m-106 -29 c-3
-3 -12 -4 -19 -1 -8 3 -5 6 6 6 11 1 17 -2 13 -5z"/>
<path d="M1238 1043 c7 -3 16 -2 19 1 4 3 -2 6 -13 5 -11 0 -14 -3 -6 -6z"/>
<path d="M1220 1018 c0 -7 4 -19 9 -27 11 -17 25 3 17 24 -7 18 -26 20 -26 3z"/>
<path d="M1240 924 c0 -8 5 -12 10 -9 6 3 10 10 10 16 0 5 -4 9 -10 9 -5 0
-10 -7 -10 -16z"/>
<path d="M1247 746 c-5 -21 -6 -41 -3 -44 12 -11 17 7 14 44 l-3 39 -8 -39z"/>
<path d="M2141 323 c0 -11 3 -13 6 -5 2 6 9 10 14 6 5 -3 9 0 9 5 0 6 -7 11
-15 11 -8 0 -15 -8 -14 -17z"/>
<path d="M180 1602 c8 -5 26 -13 40 -16 17 -5 20 -4 10 2 -8 5 -26 13 -40 16
-17 5 -20 4 -10 -2z"/>
<path d="M1727 1589 c7 -7 15 -10 18 -7 3 3 -2 9 -12 12 -14 6 -15 5 -6 -5z"/>
<path d="M260 1578 c3 -3 21 -10 40 -17 19 -6 30 -7 25 -2 -6 5 -23 13 -40 17
-16 4 -28 5 -25 2z"/>
<path d="M435 1571 c-2 -5 8 -11 23 -14 35 -7 38 -3 7 11 -13 6 -27 7 -30 3z"/>
<path d="M1730 1560 c0 -5 5 -10 10 -10 6 0 10 5 10 10 0 6 -4 10 -10 10 -5 0
-10 -4 -10 -10z"/>
<path d="M100 1540 c0 -5 5 -10 10 -10 6 0 10 5 10 10 0 6 -4 10 -10 10 -5 0
-10 -4 -10 -10z"/>
<path d="M1788 1543 c7 -3 16 -2 19 1 4 3 -2 6 -13 5 -11 0 -14 -3 -6 -6z"/>
<path d="M540 1530 c20 -13 33 -13 25 0 -3 6 -14 10 -23 10 -15 0 -15 -2 -2
-10z"/>
<path d="M588 1513 c7 -3 16 -2 19 1 4 3 -2 6 -13 5 -11 0 -14 -3 -6 -6z"/>
<path d="M40 1500 c0 -6 7 -10 15 -10 19 0 19 6 0 14 -8 3 -15 1 -15 -4z"/>
<path d="M52 1441 c-10 -6 -9 -10 7 -14 14 -3 21 0 21 9 0 16 -9 18 -28 5z"/>
<path d="M1690 1406 c0 -8 5 -18 10 -21 6 -3 10 3 10 14 0 12 -4 21 -10 21 -5
0 -10 -6 -10 -14z"/>
<path d="M837 1398 c2 -5 10 -8 18 -8 8 0 16 3 18 8 3 4 -5 7 -18 7 -13 0 -21
-3 -18 -7z"/>
<path d="M2170 1391 c-44 -5 -57 -10 -65 -28 -8 -19 -18 -23 -57 -23 -27 0
-48 5 -48 10 0 6 -4 10 -10 10 -5 0 -10 -9 -10 -20 0 -11 4 -20 9 -20 6 0 12
-19 14 -42 3 -36 5 -39 11 -20 8 20 20 26 54 25 6 -1 12 5 12 13 0 8 5 14 10
14 6 0 10 -5 10 -12 0 -6 8 -1 19 10 10 12 21 18 25 15 4 -4 4 0 1 9 -4 9 -2
19 4 23 11 6 14 -2 13 -40 -1 -17 0 -17 4 -2 3 9 10 17 15 17 5 0 8 5 7 12 -2
6 9 18 25 25 24 13 39 36 20 31 -5 -1 -33 -4 -63 -7z"/>
<path d="M224 1378 c-8 -13 -7 -14 61 -31 45 -12 63 -12 74 -4 11 9 8 13 -15
18 -16 4 -48 11 -72 17 -27 6 -44 6 -48 0z"/>
<path d="M473 1333 c-40 -5 -44 -23 -5 -23 42 0 132 -27 152 -45 10 -9 24 -14
29 -10 16 9 13 25 -5 25 -8 0 -13 4 -10 9 8 12 -20 22 -41 14 -10 -4 -14 -2
-10 4 9 15 -13 22 -49 16 -22 -3 -26 -2 -14 6 17 12 17 12 -47 4z"/>
<path d="M1965 1279 c-4 -6 -5 -13 -2 -16 7 -7 27 6 27 18 0 12 -17 12 -25 -2z"/>
<path d="M404 1263 c4 -4 19 -9 34 -10 15 -2 41 -8 57 -13 17 -5 44 -12 60
-15 17 -2 46 -9 65 -15 19 -5 44 -10 55 -9 19 0 19 1 -2 11 -13 6 -23 16 -23
22 0 6 -4 6 -8 -2 -7 -10 -30 -8 -116 13 -114 26 -134 29 -122 18z"/>
<path d="M725 1261 c-11 -18 32 -46 71 -46 28 0 38 4 40 18 2 13 -2 17 -13 13
-9 -4 -21 -2 -27 2 -18 15 -64 23 -71 13z"/>
<path d="M250 1241 c0 -12 -1 -24 -2 -28 -1 -5 6 -9 15 -11 12 -2 15 4 14 24
-3 32 -27 46 -27 15z"/>
<path d="M2298 1253 c7 -3 16 -2 19 1 4 3 -2 6 -13 5 -11 0 -14 -3 -6 -6z"/>
<path d="M290 1220 c0 -20 5 -30 15 -30 10 0 15 10 15 30 0 20 -5 30 -15 30
-10 0 -15 -10 -15 -30z"/>
<path d="M435 1194 c3 -57 21 -70 27 -19 2 19 0 35 -6 35 -5 0 -7 3 -3 6 13
13 32 -13 32 -45 0 -20 6 -36 14 -39 10 -3 12 5 9 37 -2 22 0 41 4 41 5 0 8
-4 8 -10 0 -5 5 -10 10 -10 23 0 8 28 -19 33 -16 3 -40 9 -54 12 -24 6 -25 5
-22 -41z"/>
<path d="M568 1130 c3 -61 7 -80 18 -80 15 0 20 35 5 44 -5 3 -5 21 -1 40 5
22 4 38 -3 45 -8 8 -7 11 1 11 17 0 22 -17 25 -83 3 -73 21 -79 24 -8 4 76 13
77 13 3 0 -70 0 -70 -76 -58 -30 4 -43 2 -47 -7 -4 -11 5 -13 42 -9 36 3 50 0
61 -13 11 -13 11 -18 1 -25 -9 -5 -10 -10 -2 -14 6 -4 11 -5 11 -2 0 3 21 -6
46 -19 57 -31 74 -32 69 -5 -2 12 2 23 10 27 8 3 15 13 15 22 0 11 -2 13 -8 4
-6 -10 -17 -8 -47 7 -22 11 -45 20 -52 20 -10 0 -13 21 -13 79 l0 79 -36 6
c-19 4 -41 9 -47 12 -9 3 -11 -17 -9 -76z m147 -160 c3 -6 -1 -7 -9 -4 -18 7
-21 14 -7 14 6 0 13 -4 16 -10z"/>
<path d="M245 1171 c-7 -24 1 -41 19 -41 16 0 16 52 -1 57 -6 2 -14 -5 -18
-16z"/>
<path d="M290 1150 c0 -20 5 -30 15 -30 10 0 15 10 15 30 0 20 -5 30 -15 30
-10 0 -15 -10 -15 -30z"/>
<path d="M750 1115 c0 -16 6 -25 15 -25 9 0 15 9 15 25 0 16 -6 25 -15 25 -9
0 -15 -9 -15 -25z"/>
<path d="M790 1111 c0 -20 5 -31 14 -31 10 0 14 9 13 27 -3 39 -27 42 -27 4z"/>
<path d="M436 1091 c2 -31 0 -39 -12 -34 -8 3 -14 0 -14 -6 0 -6 7 -11 15 -11
9 0 15 -9 15 -22 0 -19 -2 -20 -10 -8 -6 10 -10 11 -10 3 0 -7 -8 -13 -18 -13
-10 0 -19 7 -19 15 0 8 4 15 9 15 4 0 8 6 8 13 0 19 -39 15 -46 -5 -3 -10 -13
-18 -22 -18 -42 0 48 -32 98 -34 30 -2 47 -1 37 1 -26 7 -16 37 13 41 37 5 46
19 10 17 -30 -2 -48 9 -32 19 13 8 2 66 -13 66 -8 0 -11 -13 -9 -39z"/>
<path d="M980 1116 c0 -9 5 -16 10 -16 6 0 10 4 10 9 0 6 -4 13 -10 16 -5 3
-10 -1 -10 -9z"/>
<path d="M480 1090 c0 -20 5 -30 15 -30 10 0 15 10 15 30 0 20 -5 30 -15 30
-10 0 -15 -10 -15 -30z"/>
<path d="M754 1064 c3 -9 6 -20 6 -25 0 -5 5 -9 10 -9 6 0 10 11 10 25 0 16
-6 25 -16 25 -11 0 -14 -5 -10 -16z"/>
<path d="M790 1045 c0 -16 6 -25 15 -25 9 0 15 9 15 25 0 16 -6 25 -15 25 -9
0 -15 -9 -15 -25z"/>
<path d="M225 1030 c11 -5 27 -9 35 -9 9 0 8 4 -5 9 -11 5 -27 9 -35 9 -9 0
-8 -4 5 -9z"/>
<path d="M492 1000 c0 -14 2 -19 5 -12 2 6 2 18 0 25 -3 6 -5 1 -5 -13z"/>
<path d="M531 994 c0 -11 3 -14 6 -6 3 7 2 16 -1 19 -3 4 -6 -2 -5 -13z"/>
<path d="M2126 871 c-10 -15 5 -40 20 -34 8 3 14 0 14 -6 0 -6 -8 -11 -17 -12
-10 -1 0 -7 22 -13 50 -16 75 -10 74 18 0 11 -3 15 -6 9 -7 -18 -23 -16 -23 1
0 20 -20 31 -29 17 -10 -16 -43 -2 -37 15 6 15 -10 19 -18 5z"/>
<path d="M233 839 c15 -24 43 -28 97 -13 28 7 36 12 22 13 -13 1 -21 4 -19 9
3 4 -21 7 -53 8 -54 1 -57 0 -47 -17z"/>
<path d="M268 783 c6 -2 18 -2 25 0 6 3 1 5 -13 5 -14 0 -19 -2 -12 -5z"/>
<path d="M480 780 c0 -14 39 -32 52 -24 7 5 5 11 -7 21 -22 15 -45 17 -45 3z"/>
<path d="M913 740 c0 -25 2 -35 4 -22 2 12 2 32 0 45 -2 12 -4 2 -4 -23z"/>
<path d="M1786 765 c4 -8 8 -15 10 -15 2 0 4 7 4 15 0 8 -4 15 -10 15 -5 0 -7
-7 -4 -15z"/>
<path d="M555 740 c-3 -5 -1 -10 4 -10 6 0 11 5 11 10 0 6 -2 10 -4 10 -3 0
-8 -4 -11 -10z"/>
<path d="M357 733 c-4 -3 -7 -11 -7 -17 0 -6 5 -5 12 2 6 6 9 14 7 17 -3 3 -9
2 -12 -2z"/>
<path d="M410 703 c0 -21 3 -24 9 -14 5 8 7 20 4 28 -8 21 -13 15 -13 -14z"/>
<path d="M50 577 c0 -8 8 -23 18 -34 17 -20 32 -16 42 12 1 6 10 15 19 22 13
10 8 12 -31 13 -34 0 -48 -4 -48 -13z"/>
<path d="M148 443 c7 -3 16 -2 19 1 4 3 -2 6 -13 5 -11 0 -14 -3 -6 -6z"/>
<path d="M1578 83 c7 -3 16 -2 19 1 4 3 -2 6 -13 5 -11 0 -14 -3 -6 -6z"/>
<path d="M1825 50 c3 -5 8 -10 11 -10 2 0 4 5 4 10 0 6 -5 10 -11 10 -5 0 -7
-4 -4 -10z"/>
<path d="M1715 30 c-4 -6 5 -10 19 -10 14 0 26 -4 26 -10 0 -5 8 -10 17 -10
14 0 14 3 -5 20 -23 22 -47 26 -57 10z"/>
<path d="M767 3 c18 -2 50 -2 70 0 21 2 7 4 -32 4 -38 0 -55 -2 -38 -4z"/>
</g>
</svg>
