<svg viewBox="-90 1 511 511.99787" xmlns="http://www.w3.org/2000/svg"><g fill="#3796d2"><path d="m110.054688 271.929688c-.007813-.003907-.011719-.007813-.015626-.011719-1.316406.371093-2.625.761719-3.925781 1.171875 1.300781-.410156 2.621094-.789063 3.941407-1.160156zm0 0"/><path d="m225.628906 273.191406 30.878906 61.894532c1.988282 3.988281-.144531 8.800781-4.4375 10.003906l-21.808593 6.101562 9.03125 15.226563c2.402343 4.046875 2.003906 9.167969-.996094 12.792969l-72.585937 87.769531-72.585938-87.769531c-2.996094-3.625-3.398438-8.746094-.996094-12.792969l9.03125-15.226563-21.804687-6.101562c-4.292969-1.203125-6.429688-6.015625-4.441407-10.003906l30.878907-61.894532c-55.25 17.511719-95.292969 69.195313-95.292969 130.242188v77.964844c0 11.378906 9.226562 20.601562 20.605469 20.601562h269.210937c11.378906 0 20.605469-9.222656 20.605469-20.601562v-77.964844c0-61.046875-40.042969-112.734375-95.292969-130.242188zm0 0"/><path d="m225.3125 273.089844c-1.300781-.410156-2.613281-.800782-3.929688-1.171875-.003906.003906-.007812.007812-.015624.011719 1.320312.371093 2.640624.75 3.945312 1.160156zm0 0"/></g><path d="m79.355469 345.089844 21.804687 6.101562-9.03125 15.226563c-2.402344 4.046875-2 9.167969.996094 12.792969l72.585938 87.769531-10.675782-34.726563-8.648437-28.140625-40.273438-131.023437-.101562-.328125-.214844.429687-30.878906 61.894532c-1.992188 3.988281.144531 8.800781 4.4375 10.003906zm0 0" fill="#60c9f3"/><path d="m225.3125 273.089844-40.277344 131.019531-8.648437 28.140625-10.675781 34.726562 72.585937-87.765624c3-3.625 3.398437-8.746094.996094-12.792969l-9.027344-15.226563 21.804687-6.101562c4.292969-1.203125 6.429688-6.015625 4.4375-10.003906l-30.878906-61.894532-.214844-.433594zm0 0" fill="#60c9f3"/><path d="m154.207031 297.601562c-17.980469-6.746093-32.484375-15.578124-44.152343-25.671874-1.320313.371093-2.636719.75-3.941407 1.160156l40.273438 131.019531zm0 0" fill="#d3e6f0"/><path d="m185.035156 404.109375 40.277344-131.019531c-1.304688-.410156-2.625-.789063-3.945312-1.160156-11.667969 10.09375-26.167969 18.925781-44.148438 25.671874zm0 0" fill="#d3e6f0"/><path d="m165.710938 466.976562-10.675782-34.726562 10.675782 34.726562 10.675781-34.726562zm0 0" fill="#d3e6f0"/><path d="m165.710938 466.976562 10.675781-34.726562 8.648437-28.140625-7.820312-106.507813c-.5.1875-.984375.386719-1.496094.574219-6.460938 2.355469-13.558594 2.355469-20.019531 0-.507813-.1875-.992188-.386719-1.496094-.574219l-7.816406 106.507813 8.648437 28.140625zm0 0" fill="#ee5793"/><path d="m154.207031 297.601562c.503907.1875.984375.386719 1.496094.574219 6.460937 2.355469 13.558594 2.355469 20.019531 0 .507813-.1875.992188-.386719 1.496094-.574219 17.980469-6.746093 32.480469-15.578124 44.152344-25.671874.003906-.003907.007812-.007813.011718-.011719 26.617188-23.027344 38.523438-52.585938 43.433594-78.835938-.734375.363281-1.480468.714844-2.242187 1.046875-8.019531-31.121094-25.4375-59.753906-49.390625-81.179687-25.507813 35.910156-76.328125 51.347656-117.5 35.699219-11.09375-4.21875-21.203125-10.605469-29.972656-18.519532-1.679688 9.625-13.941407 91.382813 44.328124 141.789063.007813.003906.011719.007812.015626.011719 11.667968 10.09375 26.171874 18.925781 44.152343 25.671874zm0 0" fill="#fcdac6"/><path d="m213.179688 112.949219c23.953124 21.425781 41.375 50.058593 49.394531 81.179687.761719-.332031 1.507812-.679687 2.242187-1.046875 24.4375-12.101562 33.933594-42.800781 36.613282-70.285156 1.433593-14.707031 1.707031-29.796875-2.382813-43.992187-4.09375-14.199219-13.0625-27.523438-26.289063-34.117188-13.375-6.671875-29.824218-4.777344-40.894531 5.289062-7.210937-9.03125-9.347656-16.71875-19.726562-23.375-11.671875-7.492187-25.226563-12.320312-38.832031-14.769531-27.054688-4.867187-56.089844-.109375-79.324219 14.875-9.789063 6.3125-18.640625 14.230469-29.285157 18.957031-10.644531 4.730469-24.109374 5.617188-33.128906-1.75-3.496094 31.984376 10.371094 64.761719 34.144532 86.21875 8.769531 7.914063 18.875 14.300782 29.96875 18.515626 41.175781 15.652343 91.996093.210937 117.5-35.699219zm0 0" fill="#98b4c3"/><path d="m300.628906 314.171875c-15.769531-20.519531-36.9375-36.617187-60.71875-46.414063 16.703125-18.480468 28.03125-41.332031 33.78125-68.175781 26.464844-16.046875 35.148438-49.707031 37.695313-75.816406v-.003906c1.292969-13.320313 2.15625-30.785157-2.726563-47.730469-5.273437-18.269531-16.730468-32.953125-31.4375-40.296875-13.730468-6.847656-29.832031-6.480469-42.863281.382813-3.925781-6.046876-8.011719-12.289063-16.820313-17.941407-12.144531-7.785156-26.824218-13.378906-42.457031-16.183593-30.414062-5.476563-61.949219.464843-86.523437 16.308593-3.519532 2.269531-6.875 4.699219-10.117188 7.042969-6.019531 4.355469-11.703125 8.46875-17.804687 11.179688-7.1875 3.199218-17.007813 4.328124-22.742188-.355469-2.835937-2.320313-6.71875-2.898438-10.113281-1.511719-3.394531 1.390625-5.753906 4.523438-6.152344 8.167969-3.5625 32.535156 9.1875 66.902343 33.429688 90.988281-2.597656 20.332031-6.867188 85.847656 36.457031 133.949219-23.78125 9.792969-44.949219 25.890625-60.722656 46.414062-19.820313 25.789063-30.292969 56.648438-30.292969 89.25v77.972657c0 16.871093 13.730469 30.597656 30.609375 30.597656h269.214844c16.871093 0 30.597656-13.726563 30.597656-30.597656v-77.972657c0-32.601562-10.472656-63.464843-30.292969-89.253906zm-78.964844 42.121094 9.03125 15.222656c.246094.417969.207032.949219-.101562 1.320313l-40.550781 49.03125 4.558593-14.820313c.003907-.011719.003907-.027344.007813-.039063l33.019531-107.414062 18.363282 36.8125-18.421876 5.152344c-2.996093.839844-5.429687 3.023437-6.585937 5.910156s-.90625 6.148438.679687 8.824219zm-111.21875-8.824219c-1.15625-2.886719-3.59375-5.070312-6.585937-5.910156l-18.421875-5.152344 18.363281-36.808594 37.578125 122.261719-40.542968-49.023437c-.304688-.375-.347657-.902344-.101563-1.320313l9.03125-15.222656c1.585937-2.675781 1.835937-5.9375.679687-8.824219zm12.789063-53.6875c.320313.191406.648437.378906.96875.570312.472656.28125.945313.5625 1.425781.839844.597656.347656 1.203125.6875 1.808594 1.027344.28125.15625.5625.320312.847656.476562.214844.121094.429688.234376.648438.351563.589844.324219 1.1875.644531 1.789062.964844.441406.234375.890625.46875 1.339844.699219.601562.3125 1.203125.625 1.8125.929687.171875.089844.347656.175781.519531.261719.292969.148437.589844.285156.882813.429687.726562.355469 1.453125.714844 2.191406 1.0625.160156.074219.324219.148438.488281.222657.496094.234374.996094.464843 1.496094.691406.273437.125.539063.253906.8125.375 1.136719.511718 2.28125 1.011718 3.4375 1.5l-3.386719 46.125-17.445312-56.742188c.027344.015625.054687.03125.082031.046875.09375.058594.1875.113281.28125.167969zm64.496094 10.402344c.617187-.261719 1.230469-.53125 1.84375-.800782.507812-.222656 1.015625-.441406 1.519531-.667968.335938-.152344.664062-.308594.996094-.460938.667968-.304687 1.339844-.609375 2.003906-.925781.503906-.238281 1-.484375 1.5-.726563.488281-.238281.980469-.46875 1.460938-.710937.195312-.097656.390624-.199219.582031-.296875.472656-.234375.9375-.480469 1.40625-.71875.617187-.320312 1.230469-.640625 1.839843-.964844.503907-.265625 1.003907-.535156 1.5-.804687.25-.136719.507813-.269531.753907-.40625.359375-.199219.710937-.40625 1.066406-.605469.484375-.273438.972656-.546875 1.453125-.824219.628906-.363281 1.246094-.730469 1.867188-1.101562.125-.074219.25-.144531.371093-.21875.21875-.128907.4375-.253907.65625-.386719.003907 0 .003907 0 .007813-.003906l-17.441406 56.738281zm-19.636719 5.683594 6.835938 93.089843-9.214844 29.980469-4.398438-14.3125-4.8125-15.65625 6.835938-93.101562c.085937.003906.175781.003906.261718.007812.691407.035156 1.382813.0625 2.078126.0625h.054687c.703125 0 1.402344-.023438 2.101563-.0625.085937-.003906.171874 0 .257812-.007812zm-126.914062-251.09375c9.664062 1.632812 19.730468-.480469 27.582031-3.972657 8.007812-3.558593 14.816406-8.484375 21.40625-13.25 3.167969-2.296875 6.164062-4.460937 9.230469-6.441406 20.363281-13.125 46.65625-18.023437 72.148437-13.433594 13.074219 2.347657 25.246094 6.957031 35.195313 13.332031 5.234374 3.363282 7.621093 7.035157 10.921874 12.125 1.765626 2.71875 3.761719 5.800782 6.382813 9.082032 1.722656 2.15625 4.265625 3.507812 7.019531 3.726562 2.753906.214844 5.476563-.707031 7.519532-2.566406 7.886718-7.167969 19.828124-8.667969 29.707031-3.742188 9.714843 4.847657 17.421875 15.035157 21.148437 27.941407 3.941406 13.683593 3.160156 28.699219 2.039063 40.25-1.566407 16.035156-6.648438 42.824219-23.085938 56.957031-.605469-1.765625-1.242187-3.515625-1.90625-5.257812-.0625-.164063-.132812-.328126-.195312-.488282-.625-1.625-1.269531-3.242187-1.945313-4.851562-.25-.589844-.515625-1.167969-.765625-1.753906-.507812-1.175782-1.015625-2.351563-1.550781-3.515626-.316406-.6875-.648438-1.363281-.972656-2.046874-.5-1.050782-.996094-2.105469-1.515625-3.148438-.363281-.722656-.738281-1.4375-1.109375-2.15625-.511719-.988281-1.023438-1.980469-1.550782-2.957031-.398437-.734375-.808593-1.460938-1.214843-2.191407-.53125-.949218-1.066407-1.898437-1.613281-2.839843-.429688-.734375-.867188-1.460938-1.308594-2.191407-.550782-.921874-1.113282-1.835937-1.683594-2.746093-.457031-.726563-.921875-1.449219-1.386719-2.171875-.582031-.894532-1.167969-1.785156-1.765625-2.667969-.480468-.714844-.96875-1.429687-1.460937-2.136719-.609375-.875-1.226563-1.742187-1.847657-2.605468-.507812-.695313-1.011718-1.394532-1.527343-2.085938-.640625-.855469-1.289063-1.707031-1.945313-2.554688-.523437-.671874-1.042968-1.347656-1.578125-2.015624-.671875-.847657-1.363281-1.679688-2.050781-2.515626-.535156-.644531-1.070312-1.292968-1.613281-1.933593-.71875-.839844-1.453125-1.667969-2.1875-2.496094-.539063-.609375-1.074219-1.222656-1.621094-1.820313-.78125-.855468-1.578125-1.695312-2.378906-2.535156-.519531-.550781-1.035157-1.109375-1.5625-1.652344-.605469-.621093-1.226563-1.226562-1.84375-1.835937 3.3125-5.480469 7.1875-13.46875 8.863281-22.871094.96875-5.4375-2.652344-10.632812-8.089844-11.601562-5.429687-.972657-10.632812 2.652343-11.601562 8.089843-2.125 11.917969-9.664063 20.960938-9.867188 21.203126-.058594.066406-.105468.140624-.160156.207031-.140625.171875-.285156.339843-.414062.519531-14.179688 19.96875-37.648438 32.972656-62.195313 36.519531-14.730469 2.125-29.851563.847657-43.585937-4.375-1.214844-.460937-2.417969-.953125-3.613282-1.472656-8.351562-3.648437-16.148437-8.714844-23.226562-15.105469-18.507813-16.703125-29.824219-40.292968-31.222656-63.949218zm32.582031 90.015624c.246093.15625.492187.300782.738281.453126.191406.121093.386719.242187.582031.359374 1.207031.738282 2.425781 1.453126 3.660157 2.140626.1875.105468.375.207031.5625.308593 1.253906.6875 2.519531 1.355469 3.796874 1.988281.160157.078126.320313.15625.480469.234376 1.316407.644531 2.644531 1.265624 3.988281 1.851562.101563.046875.203126.085938.308594.132812 1.40625.609376 2.824219 1.191407 4.257813 1.734376 12.042969 4.578124 24.78125 6.761718 37.539062 6.761718 31.613281 0 63.296875-13.414062 84.46875-37.023437 18.523438 19.097656 32.132813 43.207031 38.746094 68.890625.082031.328125.1875.648437.304687.960937.035157.105469.082032.207031.125.308594.058594.148437.113282.296875.179688.441406-6.371094 27.15625-19.34375 49.34375-38.628906 66.023438 0 0 0 .003906-.003906.003906-.066407.054687-.132813.109375-.199219.167969-1.386719 1.191406-2.804688 2.363281-4.261719 3.5-.007812.007812-.015625.011718-.023438.019531-1.476562 1.152344-2.988281 2.277344-4.535156 3.375-.039062.027344-.074218.054687-.113281.082031-1.523437 1.078125-3.078125 2.125-4.667969 3.148438-.066406.042968-.132812.089844-.203125.132812-1.570312 1.007813-3.171875 1.984375-4.808593 2.933594-.089844.050781-.179688.105469-.269532.160156-1.621094.9375-3.277344 1.847656-4.960937 2.734375-.109375.054688-.214844.113281-.320313.167969-1.679687.878906-3.394531 1.726562-5.136718 2.546875-.113282.054687-.226563.109375-.339844.160156-1.742188.820313-3.519532 1.609375-5.320313 2.371094-.117187.050781-.234375.097656-.351562.148437-1.804688.757813-3.644531 1.488282-5.507813 2.191407-.515625.195312-1.027344.390625-1.546875.582031-1.121093.40625-2.277343.703125-3.441406.894531-3.25.535157-6.613281.238281-9.765625-.90625-.457031-.164062-.90625-.339843-1.359375-.507812-.003906-.003907-.007813-.007813-.011719-.007813-1.960937-.734375-3.894531-1.503906-5.792968-2.300781-.046876-.019531-.09375-.042969-.140626-.0625-1.859374-.785156-3.691406-1.601563-5.492187-2.445313-.070313-.035156-.140625-.070312-.210937-.101562-1.78125-.839844-3.53125-1.707031-5.253907-2.605469-.074219-.039062-.152343-.082031-.226562-.121093-1.710938-.898438-3.394531-1.824219-5.042969-2.78125-.074219-.042969-.144531-.085938-.21875-.128907-1.648438-.957031-3.265625-1.945312-4.851562-2.960937-.0625-.042969-.125-.082032-.1875-.125-1.589844-1.023438-3.148438-2.074219-4.675782-3.152344-.046875-.035156-.09375-.070312-.144531-.105469-1.535156-1.089843-3.035156-2.207031-4.5-3.355469-.03125-.023437-.058594-.046874-.089844-.070312-1.476562-1.160156-2.921875-2.347656-4.328125-3.5625-.003906-.003906-.011718-.007812-.015625-.011719-41.015625-35.503906-44.277343-88.308593-42.789062-115.574219zm237.160156 332.609376c0 5.847656-4.753906 10.601562-10.597656 10.601562h-29.53125v-67.515625c0-5.523437-4.476563-10-10-10-5.523438 0-10 4.476563-10 10v67.515625h-170.15625v-67.515625c0-5.523437-4.476563-10-10-10-5.523438 0-10 4.476563-10 10v67.515625h-29.527344c-5.847656 0-10.609375-4.753906-10.609375-10.601562v-77.96875c0-46.09375 25.261719-87.949219 64.070312-110.085938l-18.597656 37.277344c-2.285156 4.578125-2.40625 9.886718-.332031 14.566406 2.078125 4.679688 6.09375 8.152344 11.023437 9.53125l9.246094 2.589844-2.378906 4.007812c-4.539062 7.65625-3.777344 17.40625 1.894531 24.265625l72.542969 87.71875c.03125.039063.058594.078125.089844.117188.046875.054687.097656.105469.148437.160156.039063.046875.085938.09375.128907.140625.136718.148438.273437.292969.417968.433594.019532.015625.035156.035156.050782.050781.042968.042969.085937.078125.128906.121094.15625.140625.316406.277343.476562.410156.054688.042969.109375.089844.164063.132813.003906 0 .007812.003906.007812.003906.023438.019531.050781.042968.074219.0625.148438.113281.304688.21875.460938.324218.046874.03125.09375.066407.140624.097657.089844.058593.175782.113281.265626.167969.027343.015624.050781.027343.074218.042968.109375.0625.21875.125.328125.1875.015625.007813.03125.015625.042969.027344.003906 0 .007812 0 .011719.003906.148437.078125.300781.152344.453125.222656.046875.023438.09375.046876.140625.070313.160156.070313.324219.140625.488281.207031.042969.015625.082031.03125.125.046875.433594.164063.878906.296875 1.332031.398438.042969.011719.085938.019531.128907.027343.25.050782.5.09375.757812.128907.054688.007812.113281.015625.167969.023437.042969.003906.082031.007813.121093.011719.070313.007813.132813.019531.203126.023437.105468.011719.214843.007813.324218.015626.164063.007812.324219.019531.492188.019531.339844 0 .675781-.023438 1.011718-.058594.042969-.003906.085938-.007813.132813-.011719.0625-.007812.121094-.019531.183594-.027344.238281-.03125.476562-.074218.710937-.121093.058594-.011719.121094-.023438.179688-.039063.058594-.011718.121094-.019531.183594-.035156.371093-.09375.730468-.210938 1.085937-.34375.066406-.027344.132813-.050781.199219-.078125.140625-.054687.277344-.113281.414062-.175781.078125-.035156.160156-.074219.238282-.113282.066406-.027343.128906-.058593.191406-.089843.027344-.011719.054687-.023438.082031-.039063.03125-.015625.058594-.035156.089844-.050781.015625-.007813.03125-.011719.046875-.019531.066406-.035156.125-.078125.191406-.117188.027344-.015625.054688-.03125.082031-.046875.066407-.039062.136719-.074219.207031-.117187.019532-.011719.042969-.023438.0625-.035156.039063-.023438.074219-.050782.113282-.078126.101562-.066406.203125-.136718.304687-.207031.101563-.070312.203125-.140625.304688-.214843.042969-.03125.082031-.066407.125-.097657.085937-.066406.167969-.136719.253906-.207031.011719-.011719.023437-.019531.039063-.03125.039062-.03125.078124-.0625.117187-.09375.050781-.042969.09375-.089844.144531-.136719.070313-.0625.148438-.128906.21875-.195312.03125-.03125.0625-.066407.09375-.097657 0 0 .003906-.003906.003906-.003906.089844-.085937.175782-.175781.261719-.269531.101563-.109375.203125-.214844.300781-.328125.035157-.042969.070313-.082031.105469-.125.007813-.007812.019531-.019531.027344-.027344l72.585937-87.769531c5.671876-6.859375 6.433594-16.609375 1.890626-24.269531l-2.375-4.007813 9.246093-2.585937c4.929688-1.378906 8.945313-4.855469 11.019531-9.53125 2.074219-4.679688 1.957032-9.988282-.328124-14.566406l-18.601563-37.28125c38.804687 22.148437 64.066406 64 64.066406 110.089843v77.972657zm0 0"/><path d="m137.0625 248.796875c-1.878906 5.195313.8125 10.925781 6.003906 12.804687l4.878906 1.765626c5.726563 2.070312 11.746094 3.105468 17.761719 3.105468 6.007813 0 12.011719-1.03125 17.730469-3.09375l4.917969-1.773437c5.195312-1.875 7.886719-7.605469 6.011719-12.800781-1.871094-5.195313-7.601563-7.890626-12.796876-6.011719l-4.921874 1.773437c-7.0625 2.546875-14.84375 2.542969-21.90625-.007812l-4.875-1.765625c-5.191407-1.875-10.925782.8125-12.804688 6.003906zm0 0"/><path d="m106.136719 71.339844c2.070312 0 4.160156-.636719 5.949219-1.960938.21875-.160156 22.53125-16.363281 49.03125-12.125 5.445312.871094 10.582031-2.84375 11.453124-8.296875.871094-5.453125-2.84375-10.582031-8.296874-11.453125-35.039063-5.601562-62.980469 14.972656-64.152344 15.851563-4.410156 3.304687-5.300782 9.539062-2.015625 13.960937 1.960937 2.632813 4.976562 4.023438 8.03125 4.023438zm0 0"/><path d="m72.300781 85.304688c.539063.363281 1.121094.671874 1.730469.921874.597656.25 1.230469.449219 1.867188.578126.640624.132812 1.300781.191406 1.953124.191406.648438 0 1.308594-.058594 1.957032-.191406.632812-.128907 1.261718-.328126 1.871094-.578126.601562-.25 1.179687-.558593 1.71875-.921874.550781-.359376 1.0625-.777344 1.523437-1.238282.457031-.460937.878906-.96875 1.25-1.519531.359375-.539063.667969-1.121094.917969-1.722656.25-.609375.441406-1.238281.570312-1.878907.128906-.640624.191406-1.300781.191406-1.949218 0-.648438-.0625-1.308594-.191406-1.949219s-.320312-1.269531-.570312-1.871094c-.25-.609375-.558594-1.191406-.917969-1.730469-.371094-.550781-.792969-1.058593-1.25-1.519531-.460937-.460937-.972656-.878906-1.523437-1.238281-.539063-.363281-1.117188-.671875-1.71875-.921875-.609376-.25-1.238282-.449219-1.871094-.570313-1.289063-.257812-2.617188-.257812-3.910156 0-.636719.121094-1.269532.320313-1.867188.570313-.609375.25-1.191406.558594-1.730469.921875-.550781.359375-1.0625.777344-1.519531 1.238281-1.863281 1.859375-2.929688 4.441407-2.929688 7.070313s1.066407 5.210937 2.929688 7.070312c.457031.457032.96875.878906 1.519531 1.238282zm0 0"/><path d="m117.425781 192.644531c3.949219-1.738281 8.480469-1.742187 12.429688 0 5.054687 2.230469 10.957031-.0625 13.183593-5.113281 2.230469-5.054688-.0625-10.957031-5.113281-13.1875-9.082031-4.003906-19.492187-4-28.570312 0-5.054688 2.230469-7.34375 8.132812-5.113281 13.1875 1.648437 3.738281 5.3125 5.964844 9.152343 5.964844 1.347657.003906 2.71875-.273438 4.03125-.851563zm0 0"/><path d="m201.574219 192.648438c3.953125-1.742188 8.480469-1.742188 12.429687 0 1.316406.578124 2.683594.851562 4.03125.851562 3.84375 0 7.503906-2.226562 9.15625-5.96875 2.230469-5.050781-.0625-10.953125-5.113281-13.183594-9.078125-4.003906-19.492187-4.003906-28.570313 0-5.054687 2.230469-7.34375 8.132813-5.117187 13.183594 2.230469 5.054688 8.132813 7.34375 13.183594 5.117188zm0 0"/></svg>