<svg viewBox="-96 0 512 512.00023" xmlns="http://www.w3.org/2000/svg"><path d="m160.753906 460.636719c-20.136718 0-37.339844-14.523438-40.722656-34.375l-10.554688-61.976563h-11.308593c-32.65625 0-59.128907 26.476563-59.128907 59.132813v78.582031h242.15625v-78.582031c0-32.65625-26.476562-59.132813-59.132812-59.132813h-10.03125l-10.554688 61.976563c-3.378906 19.855469-20.585937 34.375-40.722656 34.375zm0 0" fill="#3796d2"/><path d="m42.855469 223.648438v-48.832032h-2.054688c-17.011719 0-30.800781 13.789063-30.800781 30.800782 0 17.011718 13.789062 30.800781 30.800781 30.800781h7.765625c-3.496094-3.148438-5.710937-7.695313-5.710937-12.769531zm0 0" fill="#ceae98"/><path d="m280.023438 174.816406h-3.066407v48.378906c0 5.191407-2.25 9.953126-5.839843 13.222657h8.90625c17.011718 0 30.800781-13.792969 30.800781-30.800781 0-17.011719-13.789063-30.800782-30.800781-30.800782zm0 0" fill="#ceae98"/><path d="m160.113281 393.683594c-15.59375 0-28.238281-12.644532-28.238281-28.242188v-1.15625h-22.398438l10.554688 61.976563c3.382812 19.855469 20.585938 34.375 40.722656 34.375 20.136719 0 37.339844-14.523438 40.722656-34.375l10.554688-61.976563h-23.675781v1.15625c0 15.597656-12.644531 28.242188-28.242188 28.242188zm0 0" fill="#d3e6f0"/><path d="m160.414062 345.296875c-9.863281 0-19.4375-1.410156-28.539062-4.019531v24.164062c0 15.597656 12.644531 28.242188 28.242188 28.242188 15.59375 0 28.238281-12.644532 28.238281-28.242188v-23.988281c-8.921875 2.5-18.296875 3.84375-27.941407 3.84375zm0 0" fill="#ceae98"/><path d="m242.566406 223.648438v-99.386719s-72.941406 29.449219-165.324218 19.066406v79.867187c0 9.34375-7.265626 17.324219-16.601563 17.636719-1.675781.054688-3.292969-.144531-4.832031-.535156.632812 6.742187 1.554687 13.460937 2.777344 20.128906 7.226562 39.460938 36.265624 70.234375 73.289062 80.847657 9.097656 2.613281 18.675781 4.019531 28.535156 4.019531 9.648438 0 19.023438-1.339844 27.945313-3.84375 37.308593-10.453125 66.617187-41.351563 73.882812-81.023438 1.242188-6.773437 2.175781-13.597656 2.8125-20.449219-1.488281.496094-3.058593.800782-4.699219.855469-9.765624.328125-17.785156-7.492187-17.785156-17.183593zm0 0" fill="#fcdac6"/><path d="m276.957031 223.199219v-55.625c0-16.136719 1.214844-32.257813 3.632813-48.214844l.0625-.386719c5.777344-38.089844-22.023438-73.0625-60.4375-76.023437l-38.617188-2.980469-83.433594-29.472656c-6.648437-2.347656-12.992187 4.179687-10.453124 10.757812l8.289062 21.472656c2.117188 5.488282-2.34375 11.265626-8.1875 10.605469l-58.121094-6.566406c-5.839844-.660156-10.152344 5.328125-7.671875 10.65625l16.101563 34.617187c3.117187 6.707032 4.734375 14.011719 4.734375 21.410157v110.199219c0 5.074218 2.214843 9.625 5.710937 12.769531 2.035156 1.832031 4.503906 3.183593 7.242188 3.878906 1.539062.394531 3.15625.589844 4.832031.535156 9.339844-.3125 16.605469-8.289062 16.605469-17.632812v-79.867188c92.378906 10.378907 165.324218-19.066406 165.324218-19.066406v99.382813c0 9.691406 8.015626 17.511718 17.78125 17.183593 1.640626-.054687 3.214844-.355469 4.699219-.851562 2.269531-.757813 4.328125-1.980469 6.066407-3.5625 3.589843-3.265625 5.839843-8.03125 5.839843-13.21875zm0 0" fill="#f69969"/><path d="m233.097656 328.972656c20.355469-16.964844 34.199219-40.667968 38.980469-66.734375.941406-5.097656 1.730469-10.378906 2.351563-15.761719.03125-.023437.066406-.042968.097656-.0625h5.496094c22.496093 0 40.800781-18.304687 40.800781-40.800781 0-10.898437-4.242188-21.144531-11.949219-28.847656-6.039062-6.042969-13.644531-9.945313-21.898438-11.351563.105469-14.863281 1.273438-29.839843 3.496094-44.507812l.0625-.382812c.003906-.015626.003906-.03125.007813-.046876 3.171875-20.894531-2.554688-42.367187-15.707031-58.910156-13.152344-16.546875-32.78125-26.964844-53.851563-28.589844l-37.300781-2.878906-82.183594-29.03125c-6.800781-2.402344-14.148438-.683594-19.171875 4.492188-5.027344 5.171875-6.539063 12.566406-3.9375 19.300781l6.933594 17.964844-18.882813-1.972657-35.621094-4.019531c-6.289062-.710937-12.503906 2.039063-16.203124 7.179688-3.695313 5.140625-4.335938 11.894531-1.664063 17.632812l16.097656 34.609375c2.527344 5.433594 3.808594 11.214844 3.808594 17.191406v52.152344c-18.707031 3.703125-32.859375 20.238282-32.859375 40.015625 0 10.898438 4.242188 21.144531 11.957031 28.855469 7.710938 7.703125 17.957031 11.945312 28.84375 11.945312h4.40625c.421875.273438.851563.535157 1.289063.789063.609375 5.140625 1.363281 10.175781 2.257812 15.019531 3.847656 21.035156 13.503906 40.476563 27.929688 56.214844 12.457031 13.59375 27.96875 23.90625 45.195312 30.121094v5.722656h-23.710937c-38.117188 0-69.128907 31.015625-69.128907 69.140625v78.578125c0 5.523438 4.480469 10 10 10h242.15625c5.523438 0 10-4.476562 10-10v-78.578125c0-38.125-31.011718-69.140625-69.128906-69.140625h-23.710937v-5.511719c12.660156-4.476562 24.324219-11.113281 34.742187-19.796875zm-54.742187 24.898438v11.570312c0 10.058594-8.179688 18.238282-18.238281 18.238282-10.058594 0-18.238282-8.179688-18.238282-18.238282v-11.664062c.363282.058594.730469.097656 1.09375.15625.886719.136718 1.773438.269531 2.664063.382812.542969.074219 1.085937.136719 1.628906.199219.933594.109375 1.871094.203125 2.804687.292969.488282.042968.972657.085937 1.460938.125 1.054688.082031 2.113281.144531 3.171875.199218.375.019532.746094.042969 1.117187.058594 1.378907.054688 2.757813.085938 4.140626.09375.058593 0 .117187.003906.175781.003906.09375 0 .1875.003907.28125.003907 1.40625 0 2.8125-.03125 4.214843-.082031.136719-.007813.273438-.015626.414063-.023438 1.28125-.050781 2.566406-.125 3.84375-.21875.414063-.03125.824219-.070312 1.238281-.105469 1.003906-.085937 2.007813-.179687 3.011719-.292969.496094-.054687.992187-.117187 1.488281-.179687.933594-.117187 1.867188-.246094 2.796875-.386719.308594-.046875.621094-.082031.929688-.132812zm122.46875-148.257813c0 9.070313-5.832031 16.800781-13.945313 19.640625.003906-.074218.003906-.148437.007813-.222656.039062-.609375.070312-1.222656.070312-1.835938v-37.203124c2.890625 1.019531 5.542969 2.683593 7.777344 4.914062 3.929687 3.929688 6.089844 9.148438 6.089844 14.707031zm-236.824219-144.910156c.019531 0 .042969.003906.0625.007813l.316406.035156 22.316406 2.515625c.910157.105469 1.8125.128906 2.707032.097656l34.902344 3.648437c.355468.035157.707031.054688 1.050781.054688 5.058593 0 9.398437-3.820312 9.9375-8.960938.570312-5.492187-3.414063-10.410156-8.90625-10.984374l-19.855469-2.078126c-.0625-1.984374-.449219-3.980468-1.191406-5.914062l-6.929688-17.9375 79.855469 28.207031c.828125.292969 1.691406.476563 2.5625.542969l38.621094 2.980469c15.773437 1.214843 29.886719 8.707031 39.730469 21.09375 9.84375 12.382812 13.960937 27.808593 11.59375 43.441406l-.0625.402344c-2.492188 16.417969-3.753907 33.148437-3.753907 49.71875v55.617187c0 2.226563-.933593 4.351563-2.570312 5.84375-.730469.667969-1.570313 1.164063-2.53125 1.484375-.570313.191407-1.179688.300781-1.824219.316407-.035156.003906-.066406 0-.101562 0-1.933594.042968-3.769532-.671876-5.160157-2.019532-1.414062-1.367187-2.191406-3.203125-2.191406-5.171875v-99.378906c0-3.324219-1.652344-6.433594-4.40625-8.292969-.085937-.054687-.179687-.097656-.269531-.152344-.292969-.1875-.59375-.363281-.902344-.515624-.167969-.082032-.34375-.148438-.515625-.222657-.25-.105469-.5-.207031-.753906-.289062-.1875-.066407-.375-.117188-.5625-.167969-.253907-.070312-.511719-.125-.769531-.171875-.1875-.035156-.375-.070313-.5625-.09375-.289063-.039063-.582032-.054687-.871094-.066406-.128906-.003907-.257813-.027344-.386719-.027344-.039063 0-.078125.003906-.117187.003906-.050782 0-.105469.007813-.15625.007813-.316407.011718-.636719.035156-.953126.074218-.101562.011719-.203124.027344-.304687.042969-.277344.042969-.550781.097657-.824219.164063-.101562.027344-.207031.046875-.304687.074218-.339844.09375-.675781.203126-1.003907.332032-.023437.007812-.046874.015625-.070312.023437-.699219.28125-69.699219 27.488281-156.324219 18.839844-1.378906-.140625-2.761719-.285156-4.148437-.441406-2.839844-.320313-5.664063.585937-7.78125 2.480469-2.125 1.898437-3.335938 4.609374-3.335938 7.457031v79.867187c0 4.089844-3.117187 7.519532-6.910156 7.648438-.71875.015625-1.417969-.054688-2.078125-.222656-1.113281-.285157-2.160156-.847657-3.023437-1.628907-1.535157-1.382812-2.378907-3.28125-2.378907-5.34375v-110.199219c0-8.910156-1.910156-17.53125-5.675781-25.628906l-14.242188-30.621094zm-37.910156 159.621094c-3.925782-3.929688-6.089844-9.152344-6.089844-14.710938 0-8.65625 5.316406-16.097656 12.859375-19.226562v37.257812c0 .40625.007813.8125.027344 1.214844-2.511719-1.03125-4.816407-2.5625-6.796875-4.535156zm42.332031 38.285156c-.523437-2.835937-.992187-5.738281-1.414063-8.695313.058594-.015624.113282-.035156.171876-.054687.621093-.171875 1.234374-.367187 1.839843-.585937.109375-.042969.21875-.085938.328125-.125.628906-.238282 1.246094-.488282 1.847656-.769532.015626-.003906.027344-.011718.042969-.019531.597657-.28125 1.183594-.585937 1.757813-.90625.097656-.054687.191406-.105469.289062-.160156.554688-.320313 1.097656-.664063 1.628906-1.019531.101563-.070313.203126-.140626.308594-.210938.53125-.371094 1.054688-.753906 1.558594-1.160156.0625-.050782.121094-.101563.183594-.152344.488281-.398438.964844-.816406 1.429687-1.25.050781-.046875.101563-.09375.152344-.140625.472656-.449219.925781-.921875 1.367187-1.402344.082032-.089843.164063-.179687.246094-.269531.429688-.480469.839844-.976562 1.234375-1.484375.066407-.085937.132813-.175781.199219-.261719.402344-.535156.796875-1.082031 1.164062-1.652344.003907 0 .003907 0 .003907-.003906.367187-.566406.707031-1.148437 1.035156-1.742187.050781-.09375.105469-.1875.15625-.28125.308594-.570313.589844-1.15625.859375-1.75.050781-.113281.101562-.226563.148438-.339844.265624-.609375.511718-1.222656.730468-1.851563.023438-.070312.046875-.144531.070313-.214843.210937-.613281.398437-1.234375.566406-1.867188.019531-.070312.039063-.144531.058594-.21875.167969-.648437.304687-1.304687.425781-1.96875.019531-.128906.042969-.253906.0625-.382812.109375-.65625.195312-1.324219.257812-1.992188.007813-.117187.015626-.230469.023438-.347656.054688-.703125.09375-1.414063.09375-2.132813v-68.851562c2.613281.210938 5.203125.394531 7.777344.550781 7.722656.464844 15.265625.675781 22.617187.675781 34.335938 0 64.226563-4.628906 86.546875-9.644531 2.125-.476562 4.179688-.957031 6.167969-1.4375 1.984375-.480469 3.898437-.964843 5.738281-1.441406.917969-.238281 1.820313-.476563 2.703125-.710937 1.765625-.472657 3.453125-.941407 5.066407-1.398438 3.222656-.914062 6.132812-1.792969 8.707031-2.605469v85.316407c0 7.433593 2.941406 14.375 8.285156 19.546874.40625.390626.828125.765626 1.253906 1.132813.117188.097656.234375.195313.351563.292969.363281.300781.726562.589844 1.097656.867187.082031.058594.160156.125.242188.183594.445312.324219.898437.632813 1.363281.925781.113281.074219.230469.144532.347656.214844.375.234375.753906.457031 1.136719.667969.121094.066406.242187.136719.363281.203125.480469.253906.964844.496094 1.460937.722656.089844.042969.179688.078125.269532.117188.417968.1875.84375.363281 1.269531.527343.144531.054688.285156.109375.429687.160157.496094.179687.996094.351562 1.503907.503906.019531.003906.039062.011718.058593.019531.519532.152344 1.046876.285156 1.582032.410156.066406.015625.128906.035157.199218.050781-.410156 2.859376-.867187 5.675782-1.378906 8.429688-3.941406 21.484375-15.347656 41.015625-32.113281 54.992188-10.214844 8.511718-21.867187 14.644531-34.632813 18.222656h-.003906c-12.660156 3.546875-26.117187 4.34375-39.140625 2.40625-4.015625-.597656-7.988281-1.441406-11.886719-2.558594-34.398437-9.863281-59.769531-37.855469-66.210937-73.078125zm-19.382813 164.8125c0-27.097656 22.039063-49.140625 49.128907-49.140625h2.871093l9.140626 53.660156c3.640624 21.371094 20.011718 37.671875 40.578124 41.71875v22.339844h-57.640624v-39.175781c0-5.523438-4.476563-10-10-10-5.523438 0-10 4.476562-10 10v39.175781h-24.078126zm222.15625 0v68.578125h-22.675781v-39.175781c0-5.523438-4.476562-10-10-10-5.523437 0-10 4.476562-10 10v39.175781h-57.761719v-22.339844c20.566407-4.046875 36.9375-20.347656 40.574219-41.71875l9.144531-53.660156h1.589844c27.089844 0 49.128906 22.042969 49.128906 49.140625zm-79.578124 1.160156c-2.566407 15.078125-15.511719 26.023438-30.792969 26.058594-.023438 0-.042969-.003906-.066407-.003906-.023437 0-.042968.003906-.066406.003906-15.28125-.035156-28.226562-10.980469-30.792968-26.058594l-8.570313-50.300781h1.582031c.03125.132812.070313.265625.101563.398438.058593.222656.117187.445312.175781.667968.09375.359375.195312.710938.300781 1.066406.066407.214844.128907.429688.199219.640626.117188.371093.242188.738281.371094 1.105468.066406.183594.128906.375.199218.558594.171876.464844.355469.925781.546876 1.378906.03125.082032.0625.160156.09375.242188.230468.535156.472656 1.066406.722656 1.589844.066406.140624.140625.277343.210937.417968.1875.382813.378907.757813.578125 1.132813.097656.179687.199219.355469.296875.535156.183594.332031.371094.65625.566407.980469.109374.183594.222656.367187.335937.550781.195313.316406.398437.628906.601563.9375.113281.175781.230468.351563.347656.523437.226562.328126.457031.652344.695312.972657.101563.144531.207032.289062.3125.429687.320313.425782.648438.839844.984375 1.25.023438.03125.050781.070313.078125.101563.371094.449219.75.886719 1.140625 1.316406.097657.109375.203125.214844.304688.324219.289062.3125.582031.621094.882812.925781.136719.140625.28125.277344.421875.414063.269532.265624.542969.527343.824219.789062.152344.140625.308594.28125.464844.421875.28125.25.5625.496094.851562.734375.15625.132812.3125.265625.472657.398438.3125.253906.628906.5.945312.742187.140625.105469.277344.214844.414062.320313.441407.328124.890626.644531 1.34375.953124.023438.015626.042969.03125.0625.046876.480469.324218.96875.636718 1.464844.9375.140625.085937.28125.164062.417969.246093.355469.214844.714844.421875 1.082031.621094.179688.101563.363282.195313.546875.292969.332031.175781.664063.347656 1 .515625.199219.09375.394531.191406.589844.285156.335937.15625.675781.308594 1.019531.460937.195313.082032.390625.171876.589844.253907.367188.152343.742188.296875 1.117188.4375.171874.066406.339843.136719.515624.199219.53125.191406 1.066407.375 1.609376.546874.019531.003907.035156.011719.050781.015626.5625.175781 1.128906.335937 1.699219.484374.179687.046876.355468.085938.53125.128907.398437.097656.796874.191406 1.199218.277343.21875.042969.433594.085938.65625.128907.367188.070312.738282.136719 1.113282.199219.230468.035156.460937.070312.691406.105468.375.054688.75.101563 1.125.144532.226562.023437.453125.050781.683594.074218.40625.039063.816406.066406 1.230468.09375.195313.011719.390625.027344.589844.039063.609375.027343 1.21875.046875 1.835938.046875.617187 0 1.226562-.019532 1.835937-.046875.199219-.011719.394531-.027344.589844-.039063.414062-.027344.824219-.054687 1.234375-.09375.226562-.023437.453125-.050781.679687-.074218.375-.042969.753907-.089844 1.125-.144532.234375-.035156.460938-.066406.691407-.105468.375-.0625.746093-.128907 1.117187-.199219.21875-.042969.4375-.085938.652344-.128907.402343-.085937.800781-.179687 1.199219-.277343.175781-.042969.355468-.085938.53125-.128907.570312-.148437 1.136718-.308593 1.699218-.484374.015625-.003907.03125-.011719.050782-.015626.542968-.171874 1.078124-.355468 1.613281-.546874.171875-.0625.339843-.132813.515625-.199219.375-.140625.746094-.285157 1.113281-.4375.199219-.082031.394531-.167969.589844-.253907.34375-.152343.683593-.304687 1.019531-.460937.199219-.09375.394531-.191406.589844-.285156.335937-.167969.671875-.339844 1.003906-.515625.179688-.097656.363281-.191406.542969-.292969.367187-.199219.726562-.40625 1.082031-.621094.140625-.082031.28125-.160156.417969-.246093.496093-.300782.984375-.613282 1.464843-.9375.023438-.015626.042969-.03125.0625-.046876.457032-.308593.902344-.625 1.34375-.953124.140626-.105469.277344-.214844.414063-.320313.320313-.242187.636719-.488281.945313-.742187.160156-.132813.316406-.265626.472656-.398438.289062-.242188.570312-.484375.851562-.734375.15625-.140625.3125-.28125.464844-.421875.28125-.257812.554688-.523438.828125-.789062.140625-.136719.28125-.273438.417969-.414063.300781-.304687.59375-.613281.882812-.925781.101563-.109375.207032-.214844.304688-.324219.390625-.429687.769531-.867187 1.140625-1.316406.027343-.03125.050781-.066407.082031-.101563.335938-.410156.664062-.828125.980469-1.25.109375-.140625.210937-.285156.316406-.429687.234375-.320313.464844-.644531.691406-.972657.117188-.171874.234375-.347656.347657-.523437.207031-.308594.40625-.621094.605468-.9375.113282-.183594.222656-.367187.335938-.550781.191406-.324219.378906-.652344.5625-.980469.097656-.175781.199218-.355469.296875-.535156.199219-.375.390625-.75.582031-1.132813.066406-.136718.140625-.277344.207031-.417968.253907-.523438.492188-1.054688.722657-1.589844.03125-.078125.0625-.160156.09375-.242188.191406-.453125.375-.914062.546874-1.378906.070313-.183594.132813-.375.199219-.558594.128907-.367187.253907-.734375.375-1.105468.066407-.210938.132813-.425782.195313-.640626.105468-.355468.207031-.707031.300781-1.066406.0625-.222656.121094-.445312.175781-.667968.03125-.132813.070313-.265626.101563-.398438h2.863281zm0 0"/><path d="m190.75 298.832031 3.089844-2.308593c4.421875-3.308594 5.324218-9.574219 2.015625-13.996094-3.304688-4.421875-9.570313-5.328125-13.996094-2.019532l-3.085937 2.308594c-10.808594 8.082032-25.90625 8.082032-36.714844 0l-3.085938-2.308594c-4.425781-3.308593-10.691406-2.402343-14 2.019532-3.304687 4.425781-2.402344 10.691406 2.023438 13.996094l3.089844 2.308593c8.929687 6.679688 19.628906 10.015625 30.332031 10.015625 10.699219 0 21.402343-3.339844 30.332031-10.015625zm0 0"/><path d="m125.742188 224.003906c.460937-.460937.882812-.96875 1.238281-1.519531.363281-.539063.671875-1.121094.921875-1.71875.25-.613281.441406-1.242187.570312-1.871094.128906-.648437.199219-1.3125.199219-1.960937 0-.648438-.070313-1.308594-.199219-1.949219-.121094-.640625-.320312-1.269531-.570312-1.871094-.25-.609375-.558594-1.1875-.921875-1.726562-.355469-.550781-.777344-1.0625-1.238281-1.523438-.460938-.460937-.96875-.878906-1.519532-1.238281-.539062-.359375-1.121094-.671875-1.730468-.921875-.601563-.25-1.230469-.4375-1.867188-.566406-1.292969-.261719-2.621094-.261719-3.910156 0-.632813.128906-1.261719.316406-1.871094.566406-.601562.25-1.179688.5625-1.71875.921875-.550781.359375-1.0625.777344-1.523438 1.238281-.460937.460938-.878906.972657-1.25 1.523438-.359374.539062-.667968 1.117187-.917968 1.726562-.25.601563-.441406 1.230469-.570313 1.871094-.132812.640625-.191406 1.300781-.191406 1.949219 0 .648437.0625 1.3125.191406 1.960937.128907.628907.320313 1.257813.570313 1.871094.25.597656.558594 1.179687.917968 1.71875.371094.550781.789063 1.058594 1.25 1.519531.460938.460938.972657.878906 1.523438 1.25.539062.359375 1.117188.671875 1.71875.921875.609375.25 1.238281.4375 1.871094.570313.648437.128906 1.308594.1875 1.957031.1875.652344 0 1.3125-.058594 1.953125-.1875.636719-.132813 1.269531-.320313 1.867188-.570313.609374-.25 1.191406-.5625 1.730468-.921875.550782-.371094 1.058594-.789062 1.519532-1.25zm0 0"/><path d="m139.136719 187.15625c0-5.523438-4.480469-10-10-10h-24.613281c-5.523438 0-10 4.476562-10 10s4.476562 10 10 10h24.613281c5.523437 0 10-4.476562 10-10zm0 0"/><path d="m210.371094 213.113281c-.25-.609375-.558594-1.1875-.917969-1.726562-.371094-.550781-.792969-1.0625-1.25-1.523438-2.320313-2.316406-5.773437-3.390625-9.023437-2.726562-.640626.128906-1.269532.316406-1.867188.566406-.609375.25-1.191406.5625-1.730469.921875-.550781.359375-1.0625.777344-1.519531 1.238281-.460938.460938-.882812.972657-1.242188 1.523438-.359374.539062-.667968 1.117187-.917968 1.726562-.25.601563-.449219 1.230469-.570313 1.871094-.128906.640625-.199219 1.300781-.199219 1.949219 0 .648437.070313 1.3125.199219 1.960937.128907.628907.320313 1.257813.570313 1.871094.25.597656.558594 1.179687.917968 1.71875.359376.550781.78125 1.058594 1.242188 1.519531.457031.460938.96875.878906 1.519531 1.25.539063.359375 1.121094.671875 1.730469.921875.597656.25 1.226562.4375 1.867188.570313.640624.128906 1.300781.1875 1.953124.1875.648438 0 1.308594-.058594 1.957032-.1875.632812-.132813 1.261718-.320313 1.871094-.570313.601562-.25 1.179687-.5625 1.71875-.921875.550781-.371094 1.0625-.789062 1.523437-1.25.457031-.460937.878906-.96875 1.25-1.519531.359375-.539063.667969-1.121094.917969-1.71875.25-.613281.441406-1.242187.570312-1.871094.128906-.648437.1875-1.3125.1875-1.960937 0-.648438-.058594-1.308594-.1875-1.949219s-.320312-1.269531-.570312-1.871094zm0 0"/><path d="m184.515625 197.15625h31.792969c5.519531 0 10-4.476562 10-10s-4.480469-10-10-10h-31.792969c-5.523437 0-10 4.476562-10 10s4.476563 10 10 10zm0 0"/><path d="m154.390625 65.167969c.25.597656.5625 1.179687.921875 1.71875.371094.550781.789062 1.058593 1.25 1.519531s.96875.882812 1.519531 1.25c.539063.359375 1.121094.671875 1.71875.921875.613281.25 1.242188.4375 1.871094.570313.652344.128906 1.3125.1875 1.960937.1875.648438 0 1.3125-.058594 1.949219-.1875.640625-.128907 1.269531-.320313 1.871094-.570313.609375-.25 1.1875-.5625 1.726563-.921875.550781-.367188 1.0625-.789062 1.523437-1.25s.878906-.96875 1.238281-1.519531c.359375-.539063.671875-1.121094.921875-1.71875.25-.609375.4375-1.242188.566407-1.871094.132812-.648437.203124-1.3125.203124-1.960937 0-.648438-.070312-1.308594-.203124-1.949219-.128907-.636719-.316407-1.269531-.566407-1.871094-.25-.609375-.5625-1.1875-.921875-1.726563-.359375-.550781-.777344-1.0625-1.238281-1.523437-.460937-.457031-.972656-.878906-1.523437-1.238281-.539063-.359375-1.117188-.671875-1.726563-.921875-.601563-.25-1.230469-.4375-1.871094-.566407-1.289062-.261718-2.609375-.261718-3.910156 0-.628906.128907-1.257813.316407-1.871094.566407-.597656.25-1.179687.5625-1.71875.921875-.550781.359375-1.058593.78125-1.519531 1.238281-.460938.460937-.878906.972656-1.25 1.523437-.359375.539063-.671875 1.117188-.921875 1.726563-.25.601563-.4375 1.230469-.566406 1.871094-.132813.640625-.191407 1.300781-.191407 1.949219 0 .648437.0625 1.3125.191407 1.960937.128906.628906.316406 1.261719.566406 1.871094zm0 0"/></svg>